<svg width="66" height="66" viewBox="0 0 66 66" fill="none" xmlns="http://www.w3.org/2000/svg">
<g filter="url(#filter0_b_1250_46112)">
<path d="M60.2751 36.9255C64.4211 19.1442 49.54 10.2034 47.0082 9.0412C41.6628 6.5875 36.1846 5.4331 31.2095 5.02898C26.2344 4.62486 8.40694 8.26194 5.50481 27.6597C2.60266 47.0574 12.5529 55.544 26.649 59.9893C40.7451 64.4346 56.3499 53.7602 60.2751 36.9255Z" fill="url(#paint0_linear_1250_46112)"/>
<path d="M62.2229 37.3796C64.4552 27.8059 61.548 20.5252 57.7348 15.5366C53.9779 10.6216 49.3394 7.91065 47.8425 7.22355L47.0082 9.0412L47.8425 7.22355C42.2441 4.65369 36.5297 3.45455 31.3714 3.03555C28.4452 2.79786 22.3289 3.71703 16.5465 7.20623C10.6608 10.7577 5.07687 17.0033 3.52682 27.3638C2.01697 37.4555 3.8199 45.0101 8.1116 50.6436C12.3563 56.2154 18.8185 59.617 26.0474 61.8967C41.5516 66.786 58.1095 55.0209 62.2229 37.3796Z" stroke="white" stroke-opacity="0.2" stroke-width="4"/>
</g>
<path d="M40.8677 35.1254C41.0081 35.2195 41.0411 35.4146 40.9457 35.5553C39.711 37.3793 34.2207 43 32.7996 43C31.8199 43 26.6252 37.8663 25.0775 36.1089C24.9481 35.9622 24.9858 35.7329 25.1528 35.6336C26.8279 34.6382 29.2415 34.3952 29.2415 34.3952C29.1192 33.5736 28.9156 26.578 28.9156 26.578C28.7821 25.5286 31.2511 24 33.7244 24C35.3545 24 36.414 25.4538 36.6262 26.0765C37.105 27.4801 36.2499 32.4928 36.1071 34.0688C36.091 34.2457 36.2218 34.4002 36.3956 34.4084C37.3314 34.453 40.1235 34.6262 40.8677 35.1254Z" fill="white"/>
<defs>
<filter id="filter0_b_1250_46112" x="-39" y="-38.999" width="144" height="144.02" filterUnits="userSpaceOnUse" color-interpolation-filters="sRGB">
<feFlood flood-opacity="0" result="BackgroundImageFix"/>
<feGaussianBlur in="BackgroundImage" stdDeviation="20"/>
<feComposite in2="SourceAlpha" operator="in" result="effect1_backgroundBlur_1250_46112"/>
<feBlend mode="normal" in="SourceGraphic" in2="effect1_backgroundBlur_1250_46112" result="shape"/>
</filter>
<linearGradient id="paint0_linear_1250_46112" x1="33" y1="5" x2="33" y2="61" gradientUnits="userSpaceOnUse">
<stop stop-color="#FC5565"/>
<stop offset="1" stop-color="#F6771E"/>
</linearGradient>
</defs>
</svg>
