<svg width="32" height="27" viewBox="0 0 32 27" fill="none" xmlns="http://www.w3.org/2000/svg">
<path d="M18.5755 0.952688C18.7263 0.723088 19.0391 0.669088 19.2647 0.825088C22.1891 2.84509 31.2007 11.8267 31.2007 14.1515C31.2007 15.7543 22.9699 24.2523 20.1523 26.7843C19.9171 26.9959 19.5495 26.9343 19.3903 26.6611C17.7943 23.9207 17.4047 19.9723 17.4047 19.9723C16.0875 20.1723 4.87148 20.5055 4.87148 20.5055C3.18908 20.7239 0.738284 16.6847 0.738283 12.6387C0.738283 9.97189 3.06908 8.23869 4.06748 7.89149C6.31788 7.10829 14.3547 8.50709 16.8815 8.74069C17.1651 8.76709 17.4127 8.55309 17.4259 8.26869C17.4975 6.73789 17.7751 2.17029 18.5755 0.952688Z" fill="url(#paint0_linear_1206_27277)"/>
<defs>
<linearGradient id="paint0_linear_1206_27277" x1="0.738284" y1="13.8237" x2="31.2007" y2="13.8237" gradientUnits="userSpaceOnUse">
<stop stop-color="#f47456"/>
<stop offset="1" stop-color="#5772f7"/>
</linearGradient>
</defs>
</svg>
