<svg id="Ñëîé_1" data-name="Ñëîé 1" xmlns="http://www.w3.org/2000/svg" viewBox="0 0 43.25 34.36"><title>AdobeStock_536508581 [arrow-1]</title><path d="M1380.11,393.59l-12.92,9.77v0l-0.59.42c-2.13,1.49-4.4,1.79-6.24.84s-2.9-3-2.9-5.59v-1.39h-10.15a7.38,7.38,0,0,1-2.37-.43l0.05,0.06a7.27,7.27,0,0,1-5-6.89v-4.7a7.3,7.3,0,0,1,4.23-6.61,8.77,8.77,0,0,1,.91-0.34,7.51,7.51,0,0,1,2.15-.35h1.47l0,0h8.66v-1.38c0-2.59,1.06-4.63,2.9-5.6s4-.64,6.11.77v0a0.36,0.36,0,0,0,.11.07l13.54,10.19A6.59,6.59,0,0,1,1380.11,393.59Z" transform="translate(-1339.99 -370.78)"/></svg>