<svg width="25" height="20" viewBox="0 0 25 20" fill="none" xmlns="http://www.w3.org/2000/svg">
<path d="M14.4462 0.215004C14.5606 0.0428041 14.7978 0.00230396 14.9689 0.119304C17.1868 1.6343 24.0215 8.3705 24.0215 10.1141C24.0215 11.3162 17.779 17.6897 15.6421 19.5887C15.4637 19.7474 15.1849 19.7012 15.0642 19.4963C13.8537 17.441 13.5582 14.4797 13.5582 14.4797C12.5592 14.6297 4.0527 14.8796 4.0527 14.8796C2.77672 15.0434 0.917971 12.014 0.91797 8.97951C0.91797 6.97941 2.68571 5.67951 3.44292 5.41911C5.14969 4.83171 11.245 5.88081 13.1614 6.056C13.3765 6.0758 13.5643 5.9153 13.5743 5.702C13.6286 4.5539 13.8391 1.1282 14.4462 0.215004Z" fill="white"/>
</svg>
