<svg width="26" height="26" viewBox="0 0 26 26" fill="none" xmlns="http://www.w3.org/2000/svg">
<circle cx="13" cy="13" r="13" fill="white" fill-opacity="0.3"/>
<path d="M24.7 13C25.418 13 26.0067 12.4165 25.9351 11.7021C25.7231 9.58953 24.996 7.55391 23.8091 5.77759C22.3806 3.63975 20.3503 1.97351 17.9749 0.989566C15.5994 0.00562684 12.9856 -0.251817 10.4638 0.249791C7.94207 0.751399 5.62569 1.98953 3.80761 3.80761C1.98953 5.62569 0.751399 7.94207 0.249791 10.4638C-0.251817 12.9856 0.00562687 15.5994 0.989566 17.9749C1.97351 20.3503 3.63975 22.3806 5.77759 23.8091C7.55391 24.996 9.58953 25.7231 11.7021 25.9351C12.4165 26.0067 13 25.418 13 24.7C13 23.982 12.4157 23.4084 11.7034 23.3189C10.1059 23.1181 8.57058 22.5483 7.22207 21.6473C5.5118 20.5045 4.1788 18.8803 3.39165 16.9799C2.6045 15.0796 2.39855 12.9885 2.79983 10.9711C3.20112 8.95366 4.19162 7.10056 5.64609 5.64609C7.10056 4.19162 8.95366 3.20112 10.9711 2.79983C12.9885 2.39855 15.0796 2.6045 16.9799 3.39165C18.8803 4.1788 20.5045 5.5118 21.6473 7.22207C22.5483 8.57058 23.1181 10.1059 23.3189 11.7034C23.4084 12.4157 23.982 13 24.7 13Z" fill="white"/>
</svg>
