<svg width="348" height="196" viewBox="0 0 348 196" fill="none" xmlns="http://www.w3.org/2000/svg">
<g filter="url(#filter0_b_1116_15150)">
<mask id="path-1-outside-1_1116_15150" maskUnits="userSpaceOnUse" x="1" y="1" width="347" height="194" fill="black">
<rect fill="white" x="1" y="1" width="347" height="194"/>
<path fill-rule="evenodd" clip-rule="evenodd" d="M132.088 5C152.253 5 169.716 14.8339 178.207 29.1692C187.521 17.7307 203.064 10.2383 220.665 10.2383C249.166 10.2383 272.271 29.884 272.271 54.1183C272.271 57.1138 271.918 60.0393 271.245 62.8661C277.458 60.5651 284.317 59.2891 291.526 59.2891C319.602 59.2891 342.362 78.6416 342.362 102.514C342.362 126.387 319.602 145.739 291.526 145.739C291.094 145.739 290.662 145.735 290.233 145.726C285.038 164.908 264.83 179.212 240.693 179.212C230.925 179.212 221.802 176.87 214.056 172.81C200.878 184.047 182.651 191 162.514 191C132.425 191 106.6 175.475 95.5132 153.333C87.3266 156.6 78.1861 158.426 68.5441 158.426C33.4497 158.426 5 134.235 5 104.395C5 74.554 33.4497 50.3633 68.5441 50.3633C72.6528 50.3633 76.6704 50.6948 80.5619 51.3282C80.5095 50.5178 80.4829 49.7016 80.4829 48.88C80.4829 24.6458 103.587 5 132.088 5ZM330.307 25.6836C323.185 25.6836 317.411 31.4886 317.411 38.611C317.411 45.7333 323.185 51.5383 330.307 51.5383C337.43 51.5383 343.203 45.7333 343.203 38.611C343.203 31.4886 337.43 25.6836 330.307 25.6836Z"/>
</mask>
<path fill-rule="evenodd" clip-rule="evenodd" d="M132.088 5C152.253 5 169.716 14.8339 178.207 29.1692C187.521 17.7307 203.064 10.2383 220.665 10.2383C249.166 10.2383 272.271 29.884 272.271 54.1183C272.271 57.1138 271.918 60.0393 271.245 62.8661C277.458 60.5651 284.317 59.2891 291.526 59.2891C319.602 59.2891 342.362 78.6416 342.362 102.514C342.362 126.387 319.602 145.739 291.526 145.739C291.094 145.739 290.662 145.735 290.233 145.726C285.038 164.908 264.83 179.212 240.693 179.212C230.925 179.212 221.802 176.87 214.056 172.81C200.878 184.047 182.651 191 162.514 191C132.425 191 106.6 175.475 95.5132 153.333C87.3266 156.6 78.1861 158.426 68.5441 158.426C33.4497 158.426 5 134.235 5 104.395C5 74.554 33.4497 50.3633 68.5441 50.3633C72.6528 50.3633 76.6704 50.6948 80.5619 51.3282C80.5095 50.5178 80.4829 49.7016 80.4829 48.88C80.4829 24.6458 103.587 5 132.088 5ZM330.307 25.6836C323.185 25.6836 317.411 31.4886 317.411 38.611C317.411 45.7333 323.185 51.5383 330.307 51.5383C337.43 51.5383 343.203 45.7333 343.203 38.611C343.203 31.4886 337.43 25.6836 330.307 25.6836Z" fill="white" fill-opacity="0.5"/>
<path d="M178.207 29.1692L174.765 31.2077L177.688 36.1417L181.309 31.6949L178.207 29.1692ZM271.245 62.8661L267.354 61.9403L265.623 69.2137L272.634 66.6171L271.245 62.8661ZM290.233 145.726L290.317 141.726L287.189 141.66L286.372 144.68L290.233 145.726ZM214.056 172.81L215.912 169.267L213.518 168.012L211.46 169.766L214.056 172.81ZM95.5132 153.333L99.09 151.542L97.4443 148.255L94.0304 149.617L95.5132 153.333ZM80.5619 51.3282L79.9193 55.2763L84.8778 56.0833L84.5535 51.0701L80.5619 51.3282ZM181.649 27.1308C172.355 11.4407 153.497 1 132.088 1V9C151.009 9 167.077 18.2272 174.765 31.2077L181.649 27.1308ZM220.665 6.23828C201.959 6.23828 185.239 14.1991 175.105 26.6435L181.309 31.6949C189.804 21.2623 204.17 14.2383 220.665 14.2383V6.23828ZM276.271 54.1183C276.271 27.0912 250.742 6.23828 220.665 6.23828V14.2383C247.59 14.2383 268.271 32.6769 268.271 54.1183H276.271ZM275.136 63.792C275.88 60.6658 276.271 57.4297 276.271 54.1183H268.271C268.271 56.798 267.955 59.4127 267.354 61.9403L275.136 63.792ZM291.526 55.2891C283.845 55.2891 276.516 56.6487 269.856 59.1151L272.634 66.6171C278.401 64.4816 284.789 63.2891 291.526 63.2891V55.2891ZM346.362 102.514C346.362 75.8488 321.178 55.2891 291.526 55.2891V63.2891C318.025 63.2891 338.362 81.4344 338.362 102.514H346.362ZM291.526 149.739C321.178 149.739 346.362 129.18 346.362 102.514H338.362C338.362 123.594 318.025 141.739 291.526 141.739V149.739ZM290.148 149.725C290.606 149.734 291.065 149.739 291.526 149.739V141.739C291.122 141.739 290.719 141.735 290.317 141.726L290.148 149.725ZM240.693 183.212C266.272 183.212 288.338 168.026 294.093 146.771L286.372 144.68C281.738 161.791 263.388 175.212 240.693 175.212V183.212ZM212.199 176.353C220.525 180.717 230.287 183.212 240.693 183.212V175.212C231.564 175.212 223.078 173.023 215.912 169.267L212.199 176.353ZM162.514 195C183.561 195 202.719 187.734 216.651 175.854L211.46 169.766C199.037 180.36 181.741 187 162.514 187V195ZM91.9365 155.123C103.791 178.8 131.122 195 162.514 195V187C133.727 187 109.409 172.151 99.09 151.542L91.9365 155.123ZM68.5441 162.426C78.691 162.426 88.3349 160.504 96.996 157.048L94.0304 149.617C86.3182 152.696 77.6812 154.426 68.5441 154.426V162.426ZM1 104.395C1 137.028 31.8734 162.426 68.5441 162.426V154.426C35.026 154.426 9 131.443 9 104.395H1ZM68.5441 46.3633C31.8734 46.3633 1 71.7611 1 104.395H9C9 77.3468 35.026 54.3633 68.5441 54.3633V46.3633ZM81.2045 47.3802C77.1005 46.7122 72.8681 46.3633 68.5441 46.3633V54.3633C72.4375 54.3633 76.2402 54.6775 79.9193 55.2763L81.2045 47.3802ZM76.4829 48.88C76.4829 49.7878 76.5122 50.6901 76.5702 51.5864L84.5535 51.0701C84.5067 50.3455 84.4829 49.6154 84.4829 48.88H76.4829ZM132.088 1C102.011 1 76.4829 21.8529 76.4829 48.88H84.4829C84.4829 27.4386 105.164 9 132.088 9V1ZM321.411 38.611C321.411 33.6852 325.407 29.6836 330.307 29.6836V21.6836C320.963 21.6836 313.411 29.2921 313.411 38.611H321.411ZM330.307 47.5383C325.407 47.5383 321.411 43.5368 321.411 38.611H313.411C313.411 47.9298 320.963 55.5383 330.307 55.5383V47.5383ZM339.203 38.611C339.203 43.5368 335.208 47.5383 330.307 47.5383V55.5383C339.651 55.5383 347.203 47.9298 347.203 38.611H339.203ZM330.307 29.6836C335.208 29.6836 339.203 33.6852 339.203 38.611H347.203C347.203 29.2921 339.651 21.6836 330.307 21.6836V29.6836Z" fill="white" fill-opacity="0.7" mask="url(#path-1-outside-1_1116_15150)"/>
</g>
<defs>
<filter id="filter0_b_1116_15150" x="-19" y="-19" width="386.203" height="234" filterUnits="userSpaceOnUse" color-interpolation-filters="sRGB">
<feFlood flood-opacity="0" result="BackgroundImageFix"/>
<feGaussianBlur in="BackgroundImage" stdDeviation="10"/>
<feComposite in2="SourceAlpha" operator="in" result="effect1_backgroundBlur_1116_15150"/>
<feBlend mode="normal" in="SourceGraphic" in2="effect1_backgroundBlur_1116_15150" result="shape"/>
</filter>
</defs>
</svg>
