<svg width="18" height="18" viewBox="0 0 18 18" fill="none" xmlns="http://www.w3.org/2000/svg">
<path d="M17.1292 4.6592H15.7504C15.4996 3.71519 14.8434 2.93062 13.9584 2.51714C13.0734 2.10366 12.0504 2.10366 11.1654 2.51714C10.2804 2.93063 9.62416 3.71519 9.37332 4.6592H0.871518C0.569176 4.6592 0.289944 4.82047 0.138686 5.08244C-0.0123745 5.34418 -0.0123745 5.66669 0.138686 5.92867C0.289973 6.19042 0.569182 6.35169 0.871518 6.35169H9.37332C9.62418 7.29593 10.2804 8.08027 11.1654 8.49374C12.0504 8.90723 13.0733 8.90723 13.9584 8.49374C14.8434 8.08026 15.4996 7.29593 15.7504 6.35169H17.1292C17.4316 6.35169 17.7108 6.19042 17.8621 5.92867C18.0131 5.6667 18.0131 5.3442 17.8621 5.08244C17.7108 4.82047 17.4316 4.6592 17.1292 4.6592ZM12.5619 7.1122C12.1357 7.1122 11.7272 6.94299 11.4258 6.64156C11.1246 6.34035 10.9551 5.9316 10.9551 5.50546C10.9551 5.07928 11.1246 4.67079 11.4258 4.36937C11.7272 4.06816 12.1357 3.89873 12.5619 3.89873C12.9881 3.89873 13.3966 4.06816 13.698 4.36937C13.9992 4.67081 14.1686 5.07933 14.1686 5.50546C14.1679 5.93142 13.9985 6.33968 13.6973 6.64092C13.3961 6.94216 12.9878 7.11156 12.5618 7.11224L12.5619 7.1122Z" fill="#5B4670"/>
<path d="M17.1289 11.6223H8.61146C8.3445 10.7009 7.68945 9.94135 6.81738 9.54192C5.94525 9.14228 4.94254 9.14228 4.07024 9.54192C3.19811 9.94134 2.54331 10.7009 2.27616 11.6223H0.871519C0.569177 11.6223 0.289944 11.7835 0.138686 12.0453C-0.0123745 12.3072 -0.0123745 12.6297 0.138686 12.8915C0.289973 13.1535 0.569182 13.3147 0.871519 13.3147H2.23784C2.471 14.2812 3.12762 15.0909 4.02512 15.5185C4.92262 15.9462 5.96529 15.9462 6.86256 15.5185C7.76006 15.0909 8.41695 14.2812 8.64984 13.3147H17.129C17.4313 13.3147 17.7106 13.1535 17.8618 12.8915C18.0129 12.6298 18.0129 12.3073 17.8618 12.0453C17.7106 11.7835 17.4313 11.6223 17.129 11.6223H17.1289ZM5.44346 14.1485C5.01728 14.1485 4.60855 13.9791 4.30737 13.6779C4.00619 13.3767 3.83673 12.9679 3.83673 12.5418C3.83673 12.1156 4.00616 11.7071 4.30737 11.4057C4.60858 11.1045 5.01733 10.9351 5.44346 10.9351C5.86964 10.9351 6.27814 11.1045 6.57955 11.4057C6.88076 11.7071 7.05019 12.1157 7.05019 12.5418C7.04974 12.9678 6.88053 13.3762 6.5791 13.6777C6.27789 13.9789 5.86938 14.1481 5.44342 14.1485L5.44346 14.1485Z" fill="#5B4670"/>
</svg>
