<svg width="173" height="180" viewBox="0 0 173 180" fill="none" xmlns="http://www.w3.org/2000/svg">
<g clip-path="url(#clip0_1780_15630)">
<path fill-rule="evenodd" clip-rule="evenodd" d="M86.4967 0C141.735 0 172.996 40.3039 172.996 89.9994C172.996 139.697 141.202 180 86.4967 180C31.7906 180 -0.00390625 139.697 -0.00390625 89.9994C-0.00268489 40.3039 31.2569 0 86.4967 0Z" fill="url(#paint0_linear_1780_15630)"/>
<path fill-rule="evenodd" clip-rule="evenodd" d="M155.245 157.002C158.999 157.002 162.044 160.026 162.044 163.758C162.044 167.487 158.999 170.513 155.245 170.513C151.49 170.513 148.445 167.487 148.445 163.758C148.445 160.026 151.49 157.002 155.245 157.002Z" fill="url(#paint1_linear_1780_15630)"/>
<g clip-path="url(#clip1_1780_15630)">
<path d="M79.412 89.2202C79.3326 86.8724 78.3422 84.6472 76.6496 83.0144C74.9571 81.3815 72.695 80.4688 70.3408 80.4688C67.9866 80.4688 65.7245 81.3815 64.0319 83.0144C62.3394 84.6472 61.3489 86.8724 61.2695 89.2202C61.3489 91.5681 62.3394 93.7932 64.0319 95.4261C65.7245 97.0589 67.9866 97.9717 70.3408 97.9717C72.695 97.9717 74.9571 97.0589 76.6496 95.4261C78.3422 93.7932 79.3326 91.5681 79.412 89.2202" fill="#323232"/>
<path d="M116.469 89.221C116.469 86.8189 115.513 84.5153 113.811 82.8168C112.109 81.1183 109.8 80.1641 107.393 80.1641C104.986 80.1641 102.677 81.1183 100.975 82.8168C99.2727 84.5153 98.3164 86.8189 98.3164 89.221C98.3164 91.623 99.2727 93.9267 100.975 95.6252C102.677 97.3237 104.986 98.2779 107.393 98.2779C109.8 98.2779 112.109 97.3237 113.811 95.6252C115.513 93.9267 116.469 91.623 116.469 89.221" fill="#323232"/>
<path d="M79.4224 89.2422C79.4306 86.8401 78.4823 84.5332 76.7859 82.8289C75.0896 81.1246 72.7842 80.1625 70.377 80.1543C67.9698 80.1462 65.6579 81.0925 63.9499 82.7852C62.2419 84.4779 61.2778 86.7783 61.2696 89.1804C61.2614 91.5824 62.2098 93.8893 63.9061 95.5936C65.6025 97.2979 67.9078 98.26 70.315 98.2682C72.7222 98.2764 75.0341 97.33 76.7421 95.6373C78.4501 93.9446 79.4142 91.6442 79.4224 89.2422" fill="#323232"/>
<path d="M116.472 89.2438C116.308 86.9657 115.287 84.8338 113.614 83.275C111.941 81.7162 109.739 80.8458 107.45 80.8379C105.162 80.8301 102.954 81.6855 101.271 83.2329C99.5869 84.7802 98.5513 86.9051 98.3711 89.182C98.3629 91.5841 99.3113 93.891 101.008 95.5953C102.704 97.2996 105.009 98.2617 107.417 98.2699C109.824 98.2781 112.136 97.3317 113.844 95.639C115.552 93.9463 116.516 91.6459 116.524 89.2438" fill="#323232"/>
<path d="M61.2596 71.499H56.2206C55.4818 71.4955 54.7531 71.3276 54.0876 71.0075C53.4221 70.6874 52.8365 70.2232 52.3735 69.6487C51.9105 69.0742 51.5818 68.4039 51.4114 67.6866C51.2409 66.9693 51.2329 66.223 51.3881 65.5023L59.0189 30.4698C59.2774 29.2335 59.8768 28.0938 60.7495 27.1792C61.6223 26.2645 62.7337 25.6113 63.9586 25.2932C65.1834 24.9751 66.4729 25.0046 67.6818 25.3786C68.8907 25.7525 69.9709 26.456 70.8007 27.4096L88.8916 48.2951C88.9488 48.3607 89.0194 48.4132 89.0986 48.4493C89.1779 48.4853 89.264 48.5039 89.3511 48.5039C89.4382 48.5039 89.5242 48.4853 89.6035 48.4493C89.6828 48.4132 89.7534 48.3607 89.8106 48.2951L107.932 27.4096C108.759 26.4562 109.835 25.7515 111.04 25.3746C112.246 24.9977 113.533 24.9636 114.756 25.2761C115.98 25.5886 117.092 26.2354 117.968 27.1437C118.844 28.052 119.449 29.186 119.714 30.4183L127.345 65.5126C127.502 66.2327 127.496 66.9787 127.327 67.6961C127.157 68.4135 126.83 69.084 126.368 69.6588C125.905 70.2336 125.32 70.6981 124.655 71.0182C123.99 71.3384 123.261 71.5062 122.523 71.5093H118.072C117.852 71.5136 117.638 71.4407 117.466 71.3032C117.294 71.1658 117.176 70.9725 117.133 70.7571L111.03 41.5978C111.001 41.4944 110.944 41.4006 110.867 41.3256C110.79 41.2505 110.695 41.1968 110.591 41.1698C110.486 41.1427 110.377 41.1433 110.273 41.1713C110.169 41.1994 110.074 41.2541 109.998 41.3299L89.8106 64.3895C89.7534 64.455 89.6828 64.5076 89.6035 64.5436C89.5242 64.5796 89.4382 64.5982 89.3511 64.5982C89.264 64.5982 89.1779 64.5796 89.0986 64.5436C89.0194 64.5076 88.9488 64.455 88.8916 64.3895L68.9317 41.3505C68.8561 41.2716 68.7605 41.2145 68.6551 41.1851C68.5497 41.1558 68.4383 41.1553 68.3327 41.1838C68.227 41.2123 68.131 41.2686 68.0547 41.3469C67.9784 41.4252 67.9247 41.5225 67.8991 41.6287L62.2302 70.7262C62.1873 70.9436 62.0702 71.1393 61.8988 71.2802C61.7275 71.4211 61.5126 71.4984 61.2906 71.499" fill="white"/>
<path d="M113.743 90.1803C113.624 90.1804 113.507 90.1568 113.397 90.1111C113.287 90.0654 113.188 89.9985 113.104 89.9142C113.021 89.8298 112.955 89.7298 112.91 89.6198C112.866 89.5099 112.843 89.3922 112.845 89.2736C112.819 88.1633 112.459 87.0864 111.812 86.1825C111.176 85.242 110.264 84.5218 109.2 84.1218C108.972 84.0384 108.788 83.8684 108.686 83.6491C108.584 83.4298 108.574 83.1791 108.658 82.9523C108.741 82.7255 108.912 82.5411 109.131 82.4396C109.351 82.3382 109.602 82.328 109.83 82.4114C111.234 82.9299 112.446 83.8658 113.301 85.0929C114.155 86.32 114.613 87.7792 114.61 89.2736C114.612 89.3931 114.589 89.5116 114.544 89.6222C114.499 89.7329 114.432 89.8334 114.347 89.9178C114.263 90.0023 114.162 90.0691 114.051 90.1141C113.94 90.1592 113.821 90.1817 113.702 90.1803" fill="white"/>
<path d="M77.1705 90.1803C77.0508 90.1817 76.932 90.1592 76.8212 90.1141C76.7103 90.0691 76.6096 90.0023 76.5249 89.9178C76.4403 89.8334 76.3734 89.7329 76.3282 89.6222C76.283 89.5116 76.2605 89.3931 76.2619 89.2736C76.2607 88.1517 75.9158 87.057 75.2736 86.1362C74.6313 85.2154 73.7223 84.5126 72.6685 84.1218C72.5559 84.0805 72.4526 84.0175 72.3645 83.9364C72.2763 83.8553 72.205 83.7577 72.1547 83.6491C72.1043 83.5405 72.0759 83.4231 72.0711 83.3035C72.0662 83.184 72.085 83.0646 72.1263 82.9523C72.1677 82.84 72.2308 82.7369 72.3121 82.649C72.3934 82.561 72.4912 82.4899 72.6001 82.4397C72.7089 82.3894 72.8266 82.3611 72.9464 82.3562C73.0662 82.3514 73.1858 82.3701 73.2983 82.4114C74.6976 82.9325 75.9044 83.867 76.7575 85.0903C77.6226 86.314 78.0845 87.7761 78.0792 89.2736C78.0792 89.3927 78.0557 89.5106 78.01 89.6206C77.9644 89.7306 77.8974 89.8306 77.8131 89.9148C77.7287 89.999 77.6285 90.0658 77.5183 90.1113C77.408 90.1569 77.2899 90.1803 77.1705 90.1803" fill="white"/>
<path d="M39.0273 114.311H42.8066L47.4842 120.081L52.1928 114.311H55.9411V127.85H51.3358V122.492L48.8989 125.212C48.7463 125.384 48.5587 125.522 48.3486 125.616C48.1385 125.71 47.9107 125.759 47.6804 125.758H47.2674C47.0371 125.759 46.8093 125.71 46.5992 125.616C46.3891 125.522 46.2015 125.384 46.0489 125.212L43.643 122.492V127.85H39.0273V114.311Z" fill="white"/>
<path d="M74.2151 114.311L69.0522 127.51C67.6376 131.136 65.686 133.63 62.0823 133.63C61.7678 133.627 61.4538 133.603 61.1426 133.558C60.849 133.52 60.567 133.419 60.3157 133.263C60.0644 133.107 59.8497 132.899 59.6862 132.653C59.5226 132.406 59.4141 132.128 59.3678 131.836C59.3216 131.544 59.3388 131.246 59.4182 130.961C59.546 130.486 59.8349 130.069 60.2358 129.781C60.6367 129.494 61.1249 129.354 61.6176 129.385H61.7415C62.2996 129.377 62.8422 129.201 63.2976 128.879C63.753 128.557 64.0997 128.105 64.292 127.582L58.4062 114.311H63.9099L66.6153 121.523L69.0522 114.311H74.2151Z" fill="white"/>
<path d="M78.0681 114.311H83.8402L88.7863 127.85H83.4478L80.949 119.328L78.2642 127.85H72.9258L78.0681 114.311Z" fill="white"/>
<path d="M97.7406 122.368C97.7406 121.276 97.1313 120.637 95.8613 120.637C95.3106 120.626 94.7622 120.709 94.2401 120.884V121.997C94.2401 122.904 94.5809 124.12 96.0368 124.12C96.2704 124.133 96.5042 124.096 96.7216 124.009C96.9391 123.923 97.135 123.79 97.2955 123.621C97.4559 123.451 97.5771 123.248 97.6504 123.026C97.7238 122.804 97.7475 122.569 97.7199 122.337L97.7406 122.368ZM102.398 122.193C102.398 125.068 100.694 128.159 95.8922 128.159C90.7293 128.159 89.5625 124.315 89.5625 121.121V114.311H94.2401V117.185C94.9935 116.8 95.8304 116.605 96.677 116.619C97.4267 116.592 98.174 116.718 98.8733 116.989C99.5726 117.26 100.209 117.67 100.745 118.194C101.28 118.719 101.702 119.347 101.987 120.039C102.271 120.732 102.411 121.475 102.398 122.224" fill="white"/>
<path d="M132.261 127.85H129.483V125.954C129.008 126.674 128.354 127.258 127.585 127.65C126.816 128.042 125.957 128.228 125.095 128.19C122.482 128.19 120.004 126.417 120.004 122.368V114.311H124.805V121.369C124.805 122.935 125.58 123.831 126.922 123.831C127.259 123.839 127.593 123.775 127.904 123.644C128.214 123.513 128.493 123.318 128.722 123.071C128.951 122.825 129.126 122.533 129.234 122.215C129.342 121.896 129.381 121.559 129.349 121.224V114.311H134.119V126.036C134.119 126.278 134.072 126.518 133.979 126.742C133.886 126.966 133.75 127.169 133.578 127.34C133.406 127.512 133.203 127.647 132.978 127.74C132.754 127.833 132.514 127.88 132.271 127.88" fill="white"/>
<path d="M117.419 114.236H103.82V118.667H108.157V128.27H113.083V118.667H117.419V114.236Z" fill="white"/>
<path d="M43.6434 135.516H49.4465L54.4133 149.116H49.0541L46.5346 140.554L43.8396 149.116H38.4805L43.6434 135.516Z" fill="#9900CC"/>
<path d="M65.3298 142.296C65.3284 141.933 65.2551 141.574 65.114 141.24C64.9729 140.905 64.7668 140.602 64.5077 140.347C64.2485 140.092 63.9414 139.891 63.604 139.755C63.2666 139.619 62.9056 139.552 62.5418 139.556C62.1794 139.551 61.8199 139.619 61.4842 139.756C61.1486 139.892 60.8435 140.093 60.5867 140.349C60.33 140.604 60.1269 140.907 59.9892 141.242C59.8515 141.576 59.782 141.935 59.7848 142.296C59.7617 142.674 59.8163 143.052 59.9451 143.408C60.074 143.763 60.2745 144.089 60.5342 144.365C60.7939 144.64 61.1074 144.859 61.4553 145.01C61.8032 145.16 62.1782 145.237 62.5573 145.237C62.9363 145.237 63.3113 145.16 63.6592 145.01C64.0071 144.859 64.3206 144.64 64.5803 144.365C64.84 144.089 65.0405 143.763 65.1694 143.408C65.2983 143.052 65.3529 142.674 65.3298 142.296V142.296ZM69.9557 135.517V149.117H65.4537V148.159C64.3733 149.028 63.0202 149.488 61.6331 149.457C57.699 149.457 55.0039 146.274 55.0039 142.245C55.0039 138.216 57.8229 135.156 61.6331 135.156C63.0277 135.123 64.3864 135.599 65.4537 136.495V135.465L69.9557 135.517Z" fill="#9900CC"/>
<path d="M85.771 135.516V149.116H81.0004V144.593H77.0869V149.116H72.3164V135.516H77.0869V140.214H81.0004V135.516H85.771Z" fill="#9900CC"/>
<path d="M98.018 142.317C98.018 141.599 97.7319 140.909 97.2226 140.401C96.7133 139.893 96.0225 139.607 95.3023 139.607C94.582 139.607 93.8913 139.893 93.382 140.401C92.8727 140.909 92.5866 141.599 92.5866 142.317C92.5866 142.673 92.6568 143.026 92.7933 143.354C92.9298 143.683 93.1298 143.982 93.382 144.234C93.6342 144.485 93.9335 144.685 94.263 144.821C94.5925 144.957 94.9456 145.027 95.3023 145.027C95.6589 145.027 96.012 144.957 96.3415 144.821C96.671 144.685 96.9704 144.485 97.2226 144.234C97.4747 143.982 97.6748 143.683 97.8113 143.354C97.9477 143.026 98.018 142.673 98.018 142.317V142.317ZM102.572 135.568V147.088C102.572 152.24 99.4739 154.939 94.4452 154.939C93.1601 154.925 91.8811 154.759 90.635 154.445C90.3793 154.382 90.1385 154.27 89.9263 154.114C89.7142 153.958 89.5349 153.762 89.3987 153.537C89.2626 153.313 89.1721 153.063 89.1327 152.803C89.0932 152.543 89.1054 152.278 89.1687 152.023C89.296 151.531 89.6084 151.107 90.041 150.838C90.4736 150.569 90.9932 150.477 91.492 150.581C92.4149 150.783 93.356 150.89 94.3007 150.9C97.0577 150.9 98.018 149.602 98.018 148.108C96.9992 148.88 95.7443 149.277 94.4659 149.231C90.3355 149.231 87.7437 146.346 87.7437 142.307C87.6946 141.381 87.8389 140.455 88.1672 139.587C88.4956 138.719 89.001 137.929 89.6514 137.267C90.3018 136.604 91.083 136.084 91.9455 135.738C92.8081 135.393 93.7331 135.229 94.6621 135.259C95.9859 135.23 97.2748 135.684 98.2864 136.537V135.61L102.572 135.568Z" fill="#9900CC"/>
<path d="M119.219 149.116H114.572V147.21C114.096 147.935 113.439 148.523 112.666 148.916C111.893 149.31 111.03 149.496 110.163 149.456C107.55 149.456 105 147.674 105 143.614V135.516H109.822V142.605C109.822 144.171 110.607 145.077 111.949 145.077C112.286 145.082 112.62 145.015 112.929 144.883C113.239 144.75 113.517 144.554 113.746 144.307C113.975 144.061 114.149 143.769 114.257 143.451C114.366 143.132 114.406 142.795 114.376 142.46V135.516H119.167L119.219 149.116Z" fill="#9900CC"/>
<path d="M129.742 141.75V139.236H128.637C127.274 139.236 126.572 139.627 126.572 140.627C126.572 141.265 126.964 141.904 128.306 141.904C128.798 141.891 129.289 141.839 129.773 141.75H129.742ZM134.378 149.117H129.742V145.418C129.225 145.49 128.709 145.541 128.172 145.572L126.024 149.117H120.934L123.897 144.686C123.195 144.261 122.622 143.652 122.242 142.926C121.862 142.199 121.688 141.383 121.739 140.565C121.739 137.474 123.897 135.547 128.42 135.547H131.982C132.609 135.55 133.208 135.799 133.651 136.241C134.094 136.683 134.344 137.281 134.347 137.906L134.378 149.117Z" fill="#9900CC"/>
</g>
</g>
<defs>
<linearGradient id="paint0_linear_1780_15630" x1="154.437" y1="154.007" x2="96.0759" y2="100.006" gradientUnits="userSpaceOnUse">
<stop stop-color="#FC5565"/>
<stop offset="1" stop-color="#F37920"/>
</linearGradient>
<linearGradient id="paint1_linear_1780_15630" x1="160.297" y1="168.365" x2="136.853" y2="146.116" gradientUnits="userSpaceOnUse">
<stop stop-color="#FC5565"/>
<stop offset="1" stop-color="#F37920"/>
</linearGradient>
<clipPath id="clip0_1780_15630">
<rect width="173" height="180" fill="white"/>
</clipPath>
<clipPath id="clip1_1780_15630">
<rect width="95.8652" height="129.878" fill="white" transform="translate(38.4805 25.0605)"/>
</clipPath>
</defs>
</svg>
