<svg width="275" height="50" viewBox="0 0 275 50" fill="none" xmlns="http://www.w3.org/2000/svg">
<g clip-path="url(#clip0_1780_13506)">
<path fill-rule="evenodd" clip-rule="evenodd" d="M233.739 24.488C233.75 23.8751 233.58 23.2725 233.251 22.7562C232.921 22.2399 232.447 21.833 231.887 21.5867C231.328 21.3405 230.708 21.2659 230.106 21.3725C229.504 21.479 228.947 21.7619 228.505 22.1854C228.064 22.609 227.757 23.1542 227.623 23.7525C227.49 24.3507 227.536 24.9751 227.756 25.5471C227.976 26.119 228.36 26.6129 228.859 26.9664C229.358 27.3199 229.951 27.5172 230.562 27.5335C230.974 27.5586 231.386 27.4981 231.774 27.3558C232.161 27.2136 232.515 26.9925 232.813 26.7066C233.111 26.4206 233.348 26.076 233.507 25.6942C233.666 25.3124 233.745 24.9018 233.739 24.488V24.488ZM223.627 35.4682V35.4317C223.769 34.8821 224.114 34.4069 224.591 34.102C225.069 33.797 225.644 33.6849 226.2 33.7884C226.992 33.948 227.792 34.062 228.597 34.1298C229.686 34.1851 230.777 34.0652 231.828 33.7747C232.403 33.6229 232.906 33.2707 233.246 32.7811C233.586 32.2915 233.741 31.6964 233.684 31.1025C233.603 31.1193 233.524 31.1453 233.448 31.1799C228.456 34.1298 222.483 31.0251 222.034 25.2619C221.803 22.2756 222.606 19.7035 225.075 17.828C227.344 16.1209 231.356 15.6702 233.752 17.5321C233.825 17.5726 233.903 17.6032 233.984 17.6231C234.029 17.3227 234.07 17.0404 234.12 16.74C234.329 16.74 234.506 16.7035 234.678 16.7035H238.903C238.903 16.9858 238.944 17.2089 238.944 17.4274C238.944 21.4926 238.994 25.5623 238.917 29.6275C238.914 30.9932 238.709 32.3509 238.309 33.6563C237.369 36.5471 235.132 38.0402 232.25 38.5637C229.925 38.9685 227.54 38.8597 225.261 38.2451C224.972 38.1708 224.7 38.04 224.461 37.8601C224.222 37.6802 224.021 37.4548 223.869 37.1968C223.717 36.9389 223.618 36.6534 223.576 36.3567C223.535 36.0601 223.552 35.7581 223.627 35.4682V35.4682Z" fill="#9900CC"/>
<path fill-rule="evenodd" clip-rule="evenodd" d="M196.071 24.4232C196.071 23.793 195.884 23.1769 195.535 22.6528C195.186 22.1288 194.69 21.7204 194.109 21.4792C193.529 21.238 192.89 21.1749 192.274 21.2978C191.658 21.4208 191.092 21.7243 190.647 22.1699C190.203 22.6156 189.9 23.1834 189.778 23.8015C189.655 24.4197 189.718 25.0604 189.959 25.6427C190.199 26.225 190.606 26.7226 191.129 27.0728C191.651 27.4229 192.265 27.6098 192.894 27.6098C193.313 27.616 193.728 27.5377 194.117 27.3798C194.505 27.2218 194.858 26.9873 195.154 26.6902C195.45 26.393 195.684 26.0393 195.841 25.6499C195.999 25.2605 196.077 24.8434 196.071 24.4232ZM196.13 17.745C196.248 16.6843 196.248 16.6797 197.264 16.6843H201.167C201.208 16.6843 201.249 16.7207 201.326 16.7571V32.1121H196.225C196.225 31.8071 196.189 31.543 196.17 31.3473C195.199 31.7069 194.255 32.2213 193.261 32.408C188.864 33.2228 185.024 30.4141 184.375 25.9756C183.949 23.1121 184.511 20.5128 186.608 18.4005C187.804 17.2163 189.368 16.4797 191.04 16.314C192.712 16.1483 194.39 16.5634 195.794 17.49C195.885 17.5856 195.975 17.6448 196.134 17.745H196.13Z" fill="#9900CC"/>
<path fill-rule="evenodd" clip-rule="evenodd" d="M219.725 16.6862V32.1277H214.315V27.0427H211.401C209.817 27.0427 209.817 27.0427 209.817 28.6042V32.1322H204.398V16.6817H206.872C207.643 16.6817 208.419 16.7044 209.196 16.6817C209.677 16.6543 209.831 16.8137 209.826 17.2962C209.795 18.6027 209.826 19.9047 209.826 21.2021V22.0033H214.301V20.6058C214.301 19.4859 214.274 18.3706 214.301 17.2461C214.301 17.0595 214.537 16.7135 214.673 16.709C216.343 16.6726 218.005 16.6862 219.725 16.6862Z" fill="#9900CC"/>
<path fill-rule="evenodd" clip-rule="evenodd" d="M241.906 16.7311H247.406V18.3381C247.406 20.4913 247.406 22.64 247.406 24.7841C247.406 26.6051 248.314 27.6157 249.88 27.5929C251.446 27.5702 252.603 26.423 252.603 24.7022C252.626 22.3077 252.603 19.9041 252.603 17.5005V16.7266H258.049V32.127H252.762V30.1877C252.165 30.958 251.395 31.5759 250.515 31.9912C249.635 32.4065 248.669 32.6075 247.697 32.5777C246.324 32.6129 244.987 32.137 243.944 31.2417C242.9 30.3464 242.224 29.0952 242.047 27.7295C241.949 27.0525 241.899 26.3695 241.897 25.6855C241.874 22.9541 241.897 20.1954 241.897 17.4458L241.906 16.7311Z" fill="#9900CC"/>
<path fill-rule="evenodd" clip-rule="evenodd" d="M269.771 20.8694C268.864 20.9514 268.001 20.9559 267.193 21.1107C266.87 21.1794 266.581 21.361 266.378 21.6231C266.176 21.8852 266.072 22.211 266.086 22.5424C266.1 22.8739 266.231 23.1896 266.456 23.4334C266.68 23.6772 266.983 23.8333 267.311 23.874C267.99 23.9346 268.672 23.927 269.349 23.8512C269.447 23.8129 269.535 23.7515 269.604 23.6723C269.673 23.5931 269.723 23.4984 269.748 23.396C269.789 22.6266 269.748 21.8527 269.748 20.8922L269.771 20.8694ZM274.968 19.1942V32.141H269.798V28.1577C268.591 27.8618 268.006 28.094 267.425 29.0454C266.844 29.9969 266.336 30.8663 265.764 31.7313C265.65 31.9179 265.414 32.1547 265.228 32.1592C263.44 32.1865 261.638 32.1592 259.691 32.1592C260.853 30.4293 261.933 28.8041 263.045 27.1516C261.271 26.0318 260.613 24.4203 260.599 22.4537C260.576 19.8088 261.961 17.9469 264.538 17.1912C265.415 16.931 266.321 16.7781 267.234 16.7359C268.982 16.6995 270.738 16.7086 272.517 16.7359C273.166 16.7383 273.788 16.9981 274.247 17.4586C274.706 17.9191 274.965 18.543 274.968 19.1942V19.1942Z" fill="#9900CC"/>
<path fill-rule="evenodd" clip-rule="evenodd" d="M175.039 22.4976L173.827 26.3625C173.273 28.1288 172.729 29.8951 172.152 31.6432C172.089 31.8526 171.835 32.1531 171.671 32.1531C169.779 32.1849 167.882 32.1758 165.898 32.1758C166.012 31.8435 166.085 31.5704 166.184 31.3063C167.959 26.6675 169.742 22.0151 171.49 17.3672C171.539 17.1388 171.674 16.9383 171.867 16.8069C172.059 16.6756 172.295 16.6235 172.525 16.6615C174.281 16.698 176.042 16.6889 177.798 16.6615C177.974 16.6285 178.156 16.6644 178.306 16.7618C178.456 16.8592 178.564 17.0107 178.606 17.1851C180.358 22.0105 182.12 26.8314 183.893 31.6478C183.943 31.8167 183.982 31.9885 184.011 32.1622C182.06 32.1622 180.176 32.1622 178.284 32.1394C178.116 32.1394 177.871 31.8344 177.803 31.625C176.972 28.8936 176.164 26.1213 175.347 23.3626C175.257 23.1486 175.189 22.921 175.039 22.4976Z" fill="#9900CC"/>
<path fill-rule="evenodd" clip-rule="evenodd" d="M58.5547 16.7489C59.9162 16.7489 61.246 16.7489 62.553 16.7808C62.7663 16.7808 63.0069 17.0266 63.1748 17.236C64.6362 19.0023 66.0748 20.7868 67.5271 22.5668C67.7177 22.8126 67.9174 23.0493 68.1625 23.3361C69.6284 21.5425 71.1125 19.8491 72.4558 18.0509C73.1956 17.0539 73.9898 16.5851 75.2333 16.7444C76.0768 16.7923 76.9223 16.7923 77.7658 16.7444V32.113H72.5784V26.3134L72.4241 26.2542C71.9158 26.8141 71.3984 27.3695 70.8901 27.9385C70.631 28.1933 70.3913 28.4672 70.173 28.7579C69.9294 29.1515 69.5742 29.4631 69.153 29.6529C68.7317 29.8426 68.2636 29.902 67.8085 29.8232C67.5666 29.8213 67.328 29.7665 67.1094 29.6627C66.8907 29.559 66.6972 29.4087 66.5423 29.2223C65.6845 28.2071 64.7768 27.2284 63.7512 26.0903V32.1267H58.5547V16.7489Z" fill="#F37920"/>
<path fill-rule="evenodd" clip-rule="evenodd" d="M79.8836 35.1767C80.5825 33.2738 81.9213 33.7473 82.3162 33.8383C82.9988 34.0099 83.7197 33.9358 84.3534 33.6288C84.9871 33.3218 85.4932 32.8015 85.7835 32.1585C85.8647 31.8896 85.8403 31.5997 85.7155 31.3482C83.7276 26.8232 81.7126 22.3073 79.7066 17.7869C79.575 17.5001 79.457 17.2042 79.2891 16.8218C79.4916 16.785 79.6962 16.7607 79.9017 16.749C81.5855 16.749 83.2647 16.7717 84.9439 16.749C85.1303 16.7201 85.3206 16.7633 85.4764 16.8698C85.6323 16.9762 85.742 17.1381 85.7835 17.3226C86.6004 19.5395 87.4401 21.7383 88.266 23.9507C88.3704 24.2147 88.4793 24.4742 88.6563 24.9113L90.1586 20.5274C90.5307 19.4303 90.8847 18.3286 91.2886 17.2452C91.3658 17.0449 91.6199 16.7899 91.8015 16.7899C93.6168 16.7535 95.3959 16.7626 97.2884 16.7626C97.2386 16.969 97.178 17.1726 97.1069 17.3726C95.1599 22.3346 93.2492 27.3149 91.2296 32.2359C90.6477 33.6643 89.8736 35.0061 88.9286 36.2237C87.9359 37.4426 86.5661 38.2943 85.0362 38.6439C83.5063 38.9935 81.9038 38.8211 80.4827 38.1539C80.0334 37.9354 79.1711 37.0705 79.8836 35.1767Z" fill="#F37920"/>
<path fill-rule="evenodd" clip-rule="evenodd" d="M158.482 16.804H163.892V29.6507C163.89 30.3135 163.626 30.9485 163.158 31.4168C162.69 31.8851 162.057 32.1487 161.396 32.1499H158.7V30.1878C158.532 30.3244 158.46 30.3654 158.414 30.4154C157.599 31.3589 156.522 32.0364 155.32 32.3609C154.118 32.6854 152.847 32.642 151.67 32.2364C149.365 31.417 148.157 29.6598 147.958 27.3153C147.763 25.0801 147.835 22.8222 147.812 20.5825C147.812 19.3351 147.812 18.0923 147.812 16.7949H153.299V17.5552C153.299 19.763 153.299 21.9664 153.299 24.1742C153.299 24.5339 153.299 24.898 153.354 25.2622C153.508 26.7827 154.352 27.6021 155.746 27.5976C156.408 27.6231 157.054 27.3903 157.549 26.9482C158.044 26.506 158.349 25.8887 158.401 25.2258C158.491 23.9102 158.46 22.5946 158.469 21.2744C158.491 19.7995 158.482 18.3291 158.482 16.804Z" fill="#F37920"/>
<path fill-rule="evenodd" clip-rule="evenodd" d="M119.589 25.3256C119.589 25.5988 119.589 25.8765 119.635 26.1405C119.771 26.9462 120.089 27.6336 120.969 27.8613C121.323 27.9962 121.708 28.025 122.078 27.9442C122.448 27.8634 122.786 27.6764 123.052 27.406C123.319 27.0987 123.495 26.723 123.561 26.321C123.626 25.9189 123.579 25.5065 123.424 25.1299C123.148 24.3423 122.476 24.0737 121.709 24.0191C121.392 23.9956 121.074 24.0063 120.76 24.051C119.594 24.183 119.594 24.1876 119.589 25.3484V25.3256ZM114.275 16.8037H119.589V19.8264C120.589 19.6317 121.6 19.5054 122.617 19.4486C125.97 19.4486 128.707 21.9933 128.889 25.1481C129.12 29.0449 126.924 31.9765 123.334 32.3954C122.01 32.5653 120.669 32.5392 119.353 32.318C116.662 31.8081 114.888 29.7414 114.457 26.878C114.325 26.0022 114.252 25.1186 114.239 24.2331C114.211 21.9842 114.239 19.7354 114.239 17.482C114.234 17.2589 114.252 17.045 114.275 16.8037Z" fill="#F37920"/>
<path fill-rule="evenodd" clip-rule="evenodd" d="M113.7 32.1616C111.731 32.1616 109.852 32.1616 107.968 32.1298C107.8 32.1298 107.551 31.7838 107.487 31.5516C106.611 28.6928 105.772 25.8248 104.918 22.9569L104.782 22.5017C104.424 23.5988 104.115 24.532 103.825 25.4743C103.18 27.5228 102.54 29.5714 101.878 31.629C101.81 31.8293 101.555 32.0842 101.383 32.1116C99.4995 32.148 97.6206 32.1389 95.6328 32.1389C96.191 30.6594 96.722 29.2755 97.253 27.8825C98.5873 24.3635 99.9398 20.8446 101.251 17.3257C101.297 17.1274 101.416 16.954 101.585 16.8407C101.754 16.7274 101.959 16.6827 102.159 16.7157C103.943 16.7475 105.744 16.743 107.533 16.7157C107.708 16.6908 107.886 16.7333 108.032 16.8346C108.177 16.9359 108.279 17.0885 108.318 17.262C110.06 22.0601 111.821 26.8218 113.578 31.6381C113.63 31.8097 113.671 31.9846 113.7 32.1616V32.1616Z" fill="#F37920"/>
<path fill-rule="evenodd" clip-rule="evenodd" d="M140.439 21.5416V32.112H135.03V21.5416H130.273V16.666H145.196V21.5416H140.439Z" fill="#F37920"/>
<path fill-rule="evenodd" clip-rule="evenodd" d="M24.4998 0C8.85421 0 -9.15612e-06 11.1955 -9.15612e-06 24.9998C-9.15612e-06 38.8048 9.00538 50 24.4998 50C39.9946 50 49 38.8048 49 24.9998C48.9997 11.1955 40.1458 0 24.4998 0Z" fill="#F37920"/>
<path fill-rule="evenodd" clip-rule="evenodd" d="M44.9257 43.6113C43.8623 43.6113 42.9999 44.4514 42.9999 45.4879C42.9999 46.5238 43.8623 47.3645 44.9257 47.3645C45.9891 47.3645 46.8516 46.5238 46.8516 45.4879C46.8516 44.4514 45.9891 43.6113 44.9257 43.6113Z" fill="#F4861F"/>
<path fill-rule="evenodd" clip-rule="evenodd" d="M36.9746 28.0987L39.1744 28.0977C40.5505 28.0973 41.5745 26.8582 41.2818 25.5482L37.9532 10.6238C37.7135 9.54678 36.884 8.70775 35.787 8.43538C34.6935 8.16132 33.5502 8.51089 32.8095 9.34418L24.9132 18.2266C24.807 18.3456 24.6174 18.3456 24.5119 18.2266L16.6035 9.34182C15.8622 8.50887 14.7202 8.16132 13.6261 8.43437C12.5294 8.70741 11.6999 9.5461 11.4598 10.6228L8.13018 25.5523C7.83822 26.8612 8.86045 28.0994 10.2349 28.1017L12.179 28.1058C12.3765 28.1058 12.5478 27.9713 12.5876 27.7815L15.2537 15.3805C15.2983 15.1702 15.5712 15.1014 15.7152 15.2639L24.514 25.0726C24.6195 25.1919 24.8094 25.1926 24.9153 25.0733L33.6287 15.2736C33.7733 15.1108 34.048 15.1823 34.0898 15.3937L36.5654 27.7707C36.6031 27.9612 36.7746 28.0987 36.9746 28.0987Z" fill="white"/>
<path fill-rule="evenodd" clip-rule="evenodd" d="M28.8543 35.6125C28.8453 33.508 30.5999 31.835 32.809 31.8438C34.9735 31.8519 36.7015 33.5107 36.707 35.5848C36.7126 37.6971 34.9594 39.4092 32.7914 39.4119C30.6078 39.4142 28.8633 37.7301 28.8543 35.6125Z" fill="#323232"/>
<path fill-rule="evenodd" clip-rule="evenodd" d="M12.8188 35.6125C12.8112 33.508 14.5651 31.835 16.7742 31.8438C18.9373 31.8519 20.667 33.5107 20.6719 35.5848C20.6777 37.6971 18.9245 39.4092 16.7562 39.4119C14.573 39.4142 12.8285 37.7301 12.8188 35.6125Z" fill="#323232"/>
<path d="M16.3432 33.4695C16.5819 33.3879 16.6961 33.1412 16.5972 32.919C16.4982 32.6969 16.2242 32.5826 15.9856 32.6639C15.6299 32.7862 15.2999 32.9585 15.0066 33.1732C14.7125 33.3879 14.4572 33.6438 14.2507 33.932L14.2521 33.9327C14.0431 34.2243 13.8868 34.5425 13.7882 34.8735C13.6878 35.2079 13.6439 35.5571 13.6595 35.9094C13.6699 36.1464 13.8881 36.3388 14.1469 36.3388C14.4057 36.3388 14.607 36.1464 14.5966 35.9094C14.5849 35.6417 14.6177 35.3785 14.6921 35.1287C14.7675 34.8765 14.8844 34.6375 15.0387 34.4218H15.0408C15.1975 34.2024 15.3892 34.0102 15.6071 33.8511C15.8261 33.691 16.0745 33.5619 16.3432 33.4695Z" fill="white"/>
<path d="M32.4373 33.4695C32.6757 33.3879 32.7898 33.1412 32.6909 32.919C32.592 32.6969 32.3183 32.5826 32.0793 32.6639C31.7237 32.7862 31.3937 32.9585 31.1 33.1732C30.8063 33.3879 30.551 33.6438 30.3444 33.932L30.3458 33.9327C30.1369 34.2243 29.9809 34.5425 29.8816 34.8735C29.7819 35.2079 29.7377 35.5571 29.7532 35.9094C29.7639 36.1464 29.9822 36.3388 30.241 36.3388C30.4994 36.3388 30.7007 36.1464 30.6904 35.9094C30.679 35.6417 30.7118 35.3785 30.7862 35.1287C30.8613 34.8765 30.9782 34.6375 31.1328 34.4218H31.1349C31.2916 34.2024 31.4829 34.0102 31.7008 33.8511C31.9198 33.691 32.1685 33.5619 32.4373 33.4695Z" fill="white"/>
</g>
<defs>
<clipPath id="clip0_1780_13506">
<rect width="275" height="50" fill="white"/>
</clipPath>
</defs>
</svg>
