<svg id="Layer_1" data-name="Layer 1" xmlns="http://www.w3.org/2000/svg" viewBox="0 0 80.55 32.46"><defs><style>.cls-1{fill:#f47456;}.cls-2{fill:#5772f7;}</style></defs><title>1б</title><path class="cls-1" d="M217.15,64.55a4.2,4.2,0,0,1,1.9,1.38c0.92,1.24.63,2.61,0,3.92a3.69,3.69,0,0,1-3.8,2.41,4.36,4.36,0,0,1-3.75-3.53,4,4,0,0,1,5.21-4.31l0.4,0.14" transform="translate(-195.21 -64.24)"/><path class="cls-2" d="M223.46,91.08c0.54-6.51-3.87-15-8-15-2.83,0-5.3,5.65-5.3,5.65s-1.26-9.62-5.35-9.62c-5.21,0-10.65,12.52-9.44,19.36,0.57,3.2,2.12,5.17,5.11,5.16,2,0,3.94-1.2,5-5.07,1.5,6.49,6.82,6.49,8.38.52,1.59,3.5,2.92,4.43,4.7,4.47,3.06,0.08,4.62-2,4.92-5.52" transform="translate(-195.21 -64.24)"/><polygon class="cls-2" points="39.48 17.99 40.31 14.78 43.77 14.78 44.53 22.2 41.99 22.2 41.7 18.99 41.4 18.99 40.76 22.2 37.9 22.2 37.26 18.99 36.96 18.99 36.67 22.2 34.13 22.2 34.88 14.78 38.35 14.78 39.18 17.99 39.48 17.99"/><path class="cls-2" d="M240.7,83.89a2.58,2.58,0,0,0,.92.18,1.8,1.8,0,0,0,.42,0l-2.42-5h2.76l1.12,2.58h0.3L244.86,79h2.76l-2.71,6a2.63,2.63,0,0,1-2.65,1.7,5.11,5.11,0,0,1-1.56-.23V83.89Z" transform="translate(-195.21 -64.24)"/><polygon class="cls-2" points="55.26 18.35 54.95 18.35 53.85 22.2 51.21 22.2 53.17 14.78 57.03 14.78 58.99 22.2 56.35 22.2 55.26 18.35"/><path class="cls-2" d="M254.68,79h2.52v1.8c0.25,0,.47,0,0.67,0,2,0,3.54.67,3.54,2.81,0,1.8-1.21,2.9-3.49,2.9a23.44,23.44,0,0,1-3.24-.22V79Zm4.52,5c0-.46-0.38-0.65-1.27-0.65a6,6,0,0,0-.73,0v1.26a7,7,0,0,0,.73,0c1,0,1.27-.24,1.27-0.7" transform="translate(-195.21 -64.24)"/><polygon class="cls-2" points="72.67 17.91 70.92 17.91 70.92 22.2 68.14 22.2 68.14 17.91 66.5 17.91 66.5 14.78 72.67 14.78 72.67 17.91"/><polygon class="cls-2" points="75.81 14.78 75.81 17.74 76.07 17.74 77.79 14.78 80.55 14.78 80.55 22.2 78.02 22.2 78.02 19.23 77.74 19.23 76.03 22.2 73.27 22.2 73.27 14.78 75.81 14.78"/><polygon class="cls-2" points="36.8 30.8 34.17 30.93 35.77 24.24 39.25 24.05 41.52 30.55 38.9 30.68 37.85 27.62 37.5 27.63 36.8 30.8"/><path class="cls-2" d="M244,91.88s-0.18,3.33-.18,3.33l-2.4-.12,0-.54a4,4,0,0,1-2,.5c-1.35-.08-2.14-0.78-2.07-1.86s1-1.68,2.44-1.6l1.7,0.09a1.84,1.84,0,0,0-1.69-.67,5.62,5.62,0,0,0-2.06.24l0.15-2.57a6,6,0,0,1,2.51-.32c2.27,0.12,3.75,1.25,3.63,3.52m-2.47.73-1.07-.05c-0.45,0-.61.13-0.62,0.34s0.21,0.4.61,0.42a1.87,1.87,0,0,0,1.06-.24Z" transform="translate(-195.21 -64.24)"/><polygon class="cls-2" points="51.89 24.24 51.98 26.24 54.14 26.13 54.03 24.12 56.45 24 56.79 30.59 54.37 30.72 54.29 28.98 52.14 29.09 52.24 30.82 49.82 30.95 49.48 24.37 51.89 24.24"/><path class="cls-2" d="M260.64,96.7l-1.72-.09L259,95.26l-4.8-.25-0.08,1.35-1.7-.09,0.17-3.44,0.86,0,1.79-4.39,3.42,0.17L260,93.2l0.87,0ZM255.93,93l1.52,0.08-0.5-1.61h-0.36Z" transform="translate(-195.21 -64.24)"/><polygon class="cls-2" points="70.01 24.12 72.87 23.96 73.22 30.56 70.8 30.68 70.67 28.05 70.34 28.08 69.13 30.77 66.29 30.91 65.95 24.33 68.36 24.2 68.49 26.73 68.81 26.72 70.01 24.12"/><path class="cls-2" d="M271.55,95l-2.73-.15,1.61-2a2.25,2.25,0,0,1-1.27-2.2c0.08-1.72,1.65-2.39,3.52-2.28a29.62,29.62,0,0,1,3.07.3l-0.34,6.51-2.4-.12,0.08-1.75h-0.4ZM272.33,91c-0.59,0-1,.17-1,0.47a0.84,0.84,0,0,0,1,.55,7,7,0,0,0,.92,0l0.05-1c-0.36,0-.61-0.07-0.92-0.08" transform="translate(-195.21 -64.24)"/></svg>