<svg id="Layer_1" data-name="Layer 1" xmlns="http://www.w3.org/2000/svg" viewBox="0 0 167.5 32.76"><defs><style>.cls-1{fill:#f47456;}.cls-2{fill:#5772f7;}</style></defs><title>1с</title><path class="cls-1" d="M350.34,64.26a4.24,4.24,0,0,1,1.92,1.4c0.93,1.25.63,2.64,0,4A3.72,3.72,0,0,1,348.46,72a4.41,4.41,0,0,1-3.78-3.57,4,4,0,0,1,5.26-4.35l0.41,0.14" transform="translate(-328.19 -63.94)"/><path class="cls-2" d="M356.72,91.05c0.54-6.57-3.91-15.1-8.07-15.1-2.86,0-5.35,5.7-5.35,5.7s-1.28-9.72-5.4-9.72c-5.26,0-10.76,12.64-9.54,19.55,0.57,3.23,2.14,5.22,5.16,5.21,2,0,4-1.21,5-5.12,1.51,6.55,6.89,6.55,8.46.53,1.6,3.54,2.95,4.47,4.75,4.52,3.09,0.08,4.67-2,5-5.57" transform="translate(-328.19 -63.94)"/><polygon class="cls-2" points="41.71 22.56 42.86 18.09 47.69 18.09 48.74 28.42 45.2 28.42 44.8 23.95 44.38 23.95 43.5 28.42 39.51 28.42 38.62 23.95 38.2 23.95 37.8 28.42 34.27 28.42 35.32 18.09 40.14 18.09 41.29 22.56 41.71 22.56"/><path class="cls-2" d="M378.27,88.81a3.59,3.59,0,0,0,1.29.25,2.51,2.51,0,0,0,.58-0.05l-3.37-7h3.84l1.55,3.59h0.42L384.06,82h3.84l-3.77,8.3a3.66,3.66,0,0,1-3.69,2.37,7.12,7.12,0,0,1-2.17-.32V88.81Z" transform="translate(-328.19 -63.94)"/><polygon class="cls-2" points="63.67 23.06 63.24 23.06 61.72 28.42 58.04 28.42 60.77 18.09 66.14 18.09 68.86 28.42 65.19 28.42 63.67 23.06"/><path class="cls-2" d="M397.72,82h3.51v2.5a9.33,9.33,0,0,1,.94,0c2.74,0,4.93.94,4.93,3.91,0,2.5-1.69,4-4.86,4a32.65,32.65,0,0,1-4.51-.3V82ZM404,89c0-.63-0.53-0.9-1.77-0.9a8.37,8.37,0,0,0-1,.05v1.75a9.71,9.71,0,0,0,1,.07c1.34,0,1.77-.33,1.77-1" transform="translate(-328.19 -63.94)"/><polygon class="cls-2" points="87.9 22.44 85.46 22.44 85.46 28.42 81.6 28.42 81.6 22.44 79.32 22.44 79.32 18.09 87.9 18.09 87.9 22.44"/><polygon class="cls-2" points="92.27 18.09 92.27 22.21 92.64 22.21 95.03 18.09 98.87 18.09 98.87 28.42 95.35 28.42 95.35 24.28 94.96 24.28 92.58 28.42 88.73 28.42 88.73 18.09 92.27 18.09"/><polygon class="cls-2" points="105.33 23.06 104.9 23.06 103.38 28.42 99.7 28.42 102.43 18.09 107.8 18.09 110.53 28.42 106.85 28.42 105.33 23.06"/><path class="cls-2" d="M446.29,91.21h-3.67l-0.32,1.15H439L441.77,82h5.38L450,92.36h-3.34Zm-2.72-3.34h1.77l-0.67-2.37h-0.43Z" transform="translate(-328.19 -63.94)"/><polygon class="cls-2" points="126.02 18.09 126.02 21.19 129.36 21.19 129.36 18.09 132.87 18.09 132.87 28.42 129.36 28.42 129.36 25.32 126.02 25.32 126.02 28.42 122.52 28.42 122.52 18.09 126.02 18.09"/><path class="cls-2" d="M462.91,89.12l2.25-7.1h5.36l2.29,7.1h1.1v4.94h-2.07v-1.7h-8v1.7h-2.07V89.12h1.1Zm3.77,0H469l-0.9-2.86h-0.5Z" transform="translate(-328.19 -63.94)"/><polygon class="cls-2" points="150.02 18.09 150.02 22.21 150.38 22.21 152.77 18.09 156.61 18.09 156.61 28.42 153.09 28.42 153.09 24.28 152.71 24.28 150.32 28.42 146.48 28.42 146.48 18.09 150.02 18.09"/><path class="cls-2" d="M489.54,92.36h-3.62l1.79-2.87A3.62,3.62,0,0,1,485.8,86c0-2.69,1.69-4.11,5.18-4.11a41.19,41.19,0,0,1,4.71.3v10.2h-3.51V90.13c-0.38,0-.85,0-1.25,0h-0.12ZM489,86.79c0,0.53.5,1,1.72,1a12,12,0,0,0,1.49-.07V86c-0.45,0-1.09-.08-1.45-0.08-1.3,0-1.75.35-1.75,0.88" transform="translate(-328.19 -63.94)"/></svg>