<svg width="724" height="740" viewBox="0 0 724 740" fill="none" xmlns="http://www.w3.org/2000/svg">
<mask id="path-1-outside-1_1309_100571" maskUnits="userSpaceOnUse" x="0" y="0" width="724" height="740" fill="black">
<rect fill="white" width="724" height="740"/>
<path fill-rule="evenodd" clip-rule="evenodd" d="M88.8594 40C88.8594 23.4315 102.291 10 118.859 10H604.859C621.428 10 634.859 23.4315 634.859 40V185.721C635.036 205.553 641.106 224.891 652.307 241.274L696.262 305.557C719.531 339.588 719.531 384.412 696.262 418.443L652.307 482.726C641.105 499.11 635.035 518.452 634.859 538.286V700C634.859 716.569 621.428 730 604.859 730H118.859C102.291 730 88.8594 716.569 88.8594 700V40ZM27.452 297.557L71.4064 233.274C82.7755 216.646 88.8584 196.973 88.8584 176.83L88.8584 531.17C88.8584 511.027 82.7755 491.354 71.4064 474.726L27.452 410.443C4.18267 376.412 4.18268 331.588 27.452 297.557Z"/>
</mask>
<path fill-rule="evenodd" clip-rule="evenodd" d="M88.8594 40C88.8594 23.4315 102.291 10 118.859 10H604.859C621.428 10 634.859 23.4315 634.859 40V185.721C635.036 205.553 641.106 224.891 652.307 241.274L696.262 305.557C719.531 339.588 719.531 384.412 696.262 418.443L652.307 482.726C641.105 499.11 635.035 518.452 634.859 538.286V700C634.859 716.569 621.428 730 604.859 730H118.859C102.291 730 88.8594 716.569 88.8594 700V40ZM27.452 297.557L71.4064 233.274C82.7755 216.646 88.8584 196.973 88.8584 176.83L88.8584 531.17C88.8584 511.027 82.7755 491.354 71.4064 474.726L27.452 410.443C4.18267 376.412 4.18268 331.588 27.452 297.557Z" fill="white"/>
<path fill-rule="evenodd" clip-rule="evenodd" d="M88.8594 40C88.8594 23.4315 102.291 10 118.859 10H604.859C621.428 10 634.859 23.4315 634.859 40V185.721C635.036 205.553 641.106 224.891 652.307 241.274L696.262 305.557C719.531 339.588 719.531 384.412 696.262 418.443L652.307 482.726C641.105 499.11 635.035 518.452 634.859 538.286V700C634.859 716.569 621.428 730 604.859 730H118.859C102.291 730 88.8594 716.569 88.8594 700V40ZM27.452 297.557L71.4064 233.274C82.7755 216.646 88.8584 196.973 88.8584 176.83L88.8584 531.17C88.8584 511.027 82.7755 491.354 71.4064 474.726L27.452 410.443C4.18267 376.412 4.18268 331.588 27.452 297.557Z" fill="#FFF3E8" fill-opacity="0.5"/>
<path d="M83.8584 159V176.83H93.8584V159H83.8584ZM83.8584 531.17V549H93.8584V531.17H83.8584ZM634.859 185.721H624.859V185.766L624.86 185.81L634.859 185.721ZM652.307 241.274L660.562 235.629L660.562 235.629L652.307 241.274ZM696.262 305.557L704.517 299.913L696.262 305.557ZM696.262 418.443L688.007 412.799L696.262 418.443ZM652.307 482.726L660.562 488.371L652.307 482.726ZM634.859 538.286L624.86 538.197L624.859 538.241V538.286H634.859ZM71.4064 233.274L63.1516 227.629L71.4064 233.274ZM27.452 297.557L35.7068 303.201L27.452 297.557ZM71.4064 474.726L63.1516 480.371H63.1516L71.4064 474.726ZM27.452 410.443L35.7068 404.799L27.452 410.443ZM118.859 0C96.768 0 78.8594 17.9086 78.8594 40H98.8594C98.8594 28.9543 107.814 20 118.859 20V0ZM604.859 0H118.859V20H604.859V0ZM644.859 40C644.859 17.9086 626.951 0 604.859 0V20C615.905 20 624.859 28.9543 624.859 40H644.859ZM644.859 185.721V40H624.859V185.721H644.859ZM624.86 185.81C625.054 207.625 631.731 228.898 644.053 246.918L660.562 235.629C650.481 220.885 645.018 203.48 644.859 185.632L624.86 185.81ZM644.053 246.918L688.007 311.201L704.517 299.913L660.562 235.629L644.053 246.918ZM688.007 311.201C708.949 341.829 708.949 382.171 688.007 412.799L704.517 424.087C730.113 386.653 730.113 337.347 704.517 299.913L688.007 311.201ZM688.007 412.799L644.053 477.082L660.562 488.371L704.517 424.087L688.007 412.799ZM644.053 477.082C631.73 495.105 625.053 516.38 624.86 538.197L644.859 538.374C645.017 520.524 650.48 503.116 660.562 488.371L644.053 477.082ZM644.859 700V538.286H624.859V700H644.859ZM604.859 740C626.951 740 644.859 722.091 644.859 700H624.859C624.859 711.046 615.905 720 604.859 720V740ZM118.859 740H604.859V720H118.859V740ZM78.8594 700C78.8594 722.091 96.768 740 118.859 740V720C107.814 720 98.8594 711.046 98.8594 700H78.8594ZM78.8594 40V700H98.8594V40H78.8594ZM63.1516 227.629L19.1972 291.913L35.7068 303.201L79.6612 238.918L63.1516 227.629ZM78.8584 176.83C78.8584 194.959 73.3838 212.665 63.1516 227.629L79.6612 238.918C92.1673 220.628 98.8584 198.987 98.8584 176.83H78.8584ZM98.8584 531.17L98.8584 176.83H78.8584L78.8584 531.17H98.8584ZM63.1516 480.371C73.3838 495.335 78.8584 513.041 78.8584 531.17H98.8584C98.8584 509.013 92.1672 487.372 79.6612 469.082L63.1516 480.371ZM19.1972 416.087L63.1516 480.371L79.6612 469.082L35.7068 404.799L19.1972 416.087ZM19.1972 291.913C-6.39905 329.347 -6.39907 378.653 19.1972 416.087L35.7068 404.799C14.7644 374.171 14.7644 333.829 35.7068 303.201L19.1972 291.913Z" fill="url(#paint0_linear_1309_100571)" mask="url(#path-1-outside-1_1309_100571)"/>
<defs>
<linearGradient id="paint0_linear_1309_100571" x1="303.002" y1="869" x2="303.002" y2="-18.0002" gradientUnits="userSpaceOnUse">
<stop stop-color="white" stop-opacity="0.7"/>
<stop offset="1" stop-color="white" stop-opacity="0.2"/>
</linearGradient>
</defs>
</svg>
