<svg width="50" height="50" viewBox="0 0 50 50" fill="none" xmlns="http://www.w3.org/2000/svg">
<path d="M18.075 5.29385C17.8334 5.01049 17.4333 4.91884 17.0917 5.07718C9.75001 8.50216 5 15.9522 5 24.0605C5 35.6022 14.3917 45.0022 25.9417 45.0022C34.0416 45.0022 41.4916 40.2522 44.925 32.9105C45.0833 32.5688 44.9917 32.1688 44.7084 31.9189C44.425 31.6772 44.0167 31.6522 43.7 31.8605C40.675 33.8855 37.1417 34.9522 33.4833 34.9522C23.3167 34.9522 15.0417 26.6855 15.0417 16.5188C15.0417 12.8605 16.1167 9.32721 18.1417 6.29386C18.35 5.98553 18.325 5.57721 18.075 5.29385Z" fill="#692BB8"/>
<path d="M39.1231 15.2192C39.0231 14.9276 38.7648 14.7109 38.4564 14.6609L35.4398 14.2026L34.0897 11.3109C33.9481 11.0192 33.6564 10.8359 33.3314 10.8359C33.0064 10.8359 32.7148 11.0192 32.5731 11.3109L31.2231 14.2026L28.2064 14.6609C27.8981 14.7109 27.6398 14.9276 27.5398 15.2192C27.4398 15.5193 27.5148 15.8442 27.7315 16.0692L29.9398 18.3276L29.4231 21.5359C29.3648 21.8442 29.4981 22.1609 29.7647 22.3526C30.0231 22.5276 30.3648 22.5526 30.6481 22.3943L33.3314 20.9109L36.0147 22.3943C36.1481 22.4692 36.2814 22.5026 36.4231 22.5026C36.5897 22.5026 36.7564 22.4526 36.8981 22.3526C37.1647 22.1609 37.2981 21.8442 37.2398 21.5359L36.7231 18.3276L38.9314 16.0692C39.1481 15.8442 39.2231 15.5193 39.1231 15.2192Z" fill="#692BB8"/>
</svg>
