<svg width="50" height="50" viewBox="0 0 50 50" fill="none" xmlns="http://www.w3.org/2000/svg">
<path d="M24.9984 12.3984C18.0484 12.3984 12.3984 18.0484 12.3984 24.9984C12.3984 31.9484 18.0484 37.5984 24.9984 37.5984C31.9484 37.5984 37.5984 31.9484 37.5984 24.9984C37.5984 18.0484 31.9484 12.3984 24.9984 12.3984Z" fill="#FFE600"/>
<path d="M24.9977 9.79919C25.8977 9.79919 26.6476 9.0492 26.6476 8.1492V2.84921C26.6476 1.94921 25.8977 1.19922 24.9977 1.19922C24.0977 1.19922 23.3477 1.94921 23.3477 2.84921V8.1492C23.3477 9.0992 24.0977 9.79919 24.9977 9.79919Z" fill="#FFE600"/>
<path d="M11.9484 14.2484C12.2484 14.5484 12.6984 14.7484 13.0984 14.7484C13.4984 14.7484 13.9484 14.5984 14.2484 14.2484C14.8984 13.5984 14.8984 12.5984 14.2484 11.9484L10.4984 8.19844C9.84842 7.54844 8.84844 7.54844 8.19844 8.19844C7.54844 8.84844 7.54844 9.84842 8.19844 10.4984L11.9484 14.2484Z" fill="#FFE600"/>
<path d="M9.7992 24.9996C9.7992 24.0996 9.0492 23.3496 8.1492 23.3496H2.84921C1.94921 23.3496 1.19922 24.0996 1.19922 24.9996C1.19922 25.8996 1.94921 26.6496 2.84921 26.6496H8.1492C9.0992 26.6496 9.7992 25.8996 9.7992 24.9996Z" fill="#FFE600"/>
<path d="M11.9484 35.7492L8.19844 39.4992C7.54844 40.1492 7.54844 41.1492 8.19844 41.7992C8.49844 42.0992 8.94843 42.2992 9.34843 42.2992C9.74843 42.2992 10.1984 42.1492 10.4984 41.7992L14.2484 38.0492C14.8984 37.3992 14.8984 36.3992 14.2484 35.7492C13.6484 35.0992 12.5984 35.0992 11.9484 35.7492Z" fill="#FFE600"/>
<path d="M24.9977 40.1992C24.0977 40.1992 23.3477 40.9492 23.3477 41.8492V47.1492C23.3477 48.0492 24.0977 48.7992 24.9977 48.7992C25.8977 48.7992 26.6476 48.0492 26.6476 47.1492V41.8492C26.6476 40.8992 25.8977 40.1992 24.9977 40.1992Z" fill="#FFE600"/>
<path d="M38.0492 35.7492C37.3992 35.0992 36.3992 35.0992 35.7492 35.7492C35.0992 36.3992 35.0992 37.3992 35.7492 38.0492L39.4992 41.7992C39.7992 42.0992 40.2492 42.2992 40.6492 42.2992C41.0492 42.2992 41.4992 42.1492 41.7992 41.7992C42.4492 41.1492 42.4492 40.1492 41.7992 39.4992L38.0492 35.7492Z" fill="#FFE600"/>
<path d="M47.0984 23.3496H41.7984C40.8984 23.3496 40.1484 24.0996 40.1484 24.9996C40.1484 25.8996 40.8984 26.6496 41.7984 26.6496H47.0984C47.9984 26.6496 48.7484 25.8996 48.7484 24.9996C48.7484 24.0996 47.9984 23.3496 47.0984 23.3496Z" fill="#FFE600"/>
<path d="M36.8992 14.7484C37.2992 14.7484 37.7492 14.5984 38.0492 14.2484L41.7992 10.4984C42.4492 9.84842 42.4492 8.84844 41.7992 8.19844C41.1492 7.54844 40.1492 7.54844 39.4992 8.19844L35.7492 11.9484C35.0992 12.5984 35.0992 13.5984 35.7492 14.2484C36.0492 14.5984 36.4492 14.7484 36.8992 14.7484Z" fill="#FFE600"/>
</svg>
