<svg width="200" height="100" viewBox="0 0 200 100" fill="none" xmlns="http://www.w3.org/2000/svg">
<path d="M0 100C2.3186e-06 73.4783 10.5357 48.043 29.2893 29.2893C48.043 10.5357 73.4784 2.84536e-06 100 0C126.522 -2.84536e-06 151.957 10.5357 170.711 29.2893C189.464 48.0429 200 73.4783 200 100H186.089C186.089 77.1678 177.019 55.2709 160.874 39.1261C144.729 22.9813 122.832 13.9113 100 13.9113C77.1679 13.9113 55.2709 22.9814 39.1261 39.1261C22.9814 55.2709 13.9113 77.1679 13.9113 100H0Z" fill="#CA72E6"/>
<path d="M12.8281 99.9999C12.8281 77.1317 22.0117 55.2002 38.3586 39.03C54.7056 22.8597 76.8767 13.7754 99.9948 13.7754C123.113 13.7754 145.284 22.8597 161.631 39.03C177.978 55.2002 187.161 77.1317 187.161 99.9999H185.784C185.784 77.4931 176.746 55.9081 160.657 39.9934C144.568 24.0787 122.747 15.1379 99.9948 15.1379C77.2421 15.138 55.4212 24.0787 39.3326 39.9934C23.2441 55.9081 14.2056 77.4931 14.2056 99.9999H12.8281Z" fill="#C45CE4"/>
<path d="M14.0039 99.9993C14.0039 77.3835 23.0646 55.6941 39.1927 39.7024C55.3209 23.7106 77.1953 14.7266 100.004 14.7266C122.813 14.7266 144.687 23.7106 160.815 39.7024C176.943 55.6941 186.004 77.3835 186.004 99.9993H171.766C171.766 81.1276 164.206 63.0289 150.748 49.6846C137.29 36.3403 119.037 28.8436 100.004 28.8436C80.9713 28.8436 62.7182 36.3403 49.2601 49.6846C35.802 63.0289 28.2413 81.1276 28.2413 99.9993H14.0039Z" fill="#E872BF"/>
<path d="M27.9961 99.9993C27.9961 81.0499 35.5818 62.8767 49.0844 49.4776C62.587 36.0784 80.9005 28.5508 99.9961 28.5508C119.092 28.5508 137.405 36.0784 150.908 49.4775C164.41 62.8767 171.996 81.0499 171.996 99.9992H170.454C170.454 81.4559 163.03 63.672 149.817 50.5599C136.604 37.4477 118.683 30.0814 99.9961 30.0814C81.3096 30.0814 63.3884 37.4477 50.1751 50.5599C36.9617 63.672 29.5385 81.4559 29.5385 99.9993H27.9961Z" fill="#E05EB4"/>
<path d="M29.1719 100.001C29.1719 81.2907 36.6347 63.3472 49.9185 50.1174C63.2023 36.8875 81.219 29.4551 100.005 29.4551C118.791 29.4551 136.808 36.8875 150.092 50.1174C163.376 63.3472 170.839 81.2907 170.839 100.001L156.672 100.001C156.672 85.0327 150.702 70.6779 140.075 60.094C129.448 49.5101 115.034 43.5642 100.005 43.5642C84.9763 43.5642 70.5629 49.5101 59.9358 60.094C49.3088 70.6779 43.3385 85.0327 43.3385 100.001H29.1719Z" fill="#F87B90"/>
<path d="M42 100C42 84.9753 48.1107 70.5657 58.9878 59.9415C69.8649 49.3173 84.6174 43.3486 100 43.3486C115.383 43.3486 130.135 49.3173 141.012 59.9415C151.889 70.5657 158 84.9752 158 100H156.757C156.757 85.2971 150.778 71.1963 140.134 60.7996C129.489 50.403 115.053 44.5623 100 44.5623C84.947 44.5623 70.5105 50.403 59.8664 60.7997C49.2223 71.1963 43.2425 85.2971 43.2425 100H42Z" fill="#F4687F"/>
<path d="M43.1641 99.9999C43.1641 85.196 49.1518 70.9984 59.8102 60.5304C70.4685 50.0625 84.9243 44.1816 99.9974 44.1816C115.071 44.1816 129.526 50.0625 140.185 60.5304C150.843 70.9984 156.831 85.1959 156.831 99.9999L143.986 99.9999C143.986 88.5417 139.352 77.5528 131.102 69.4506C122.853 61.3484 111.664 56.7967 99.9974 56.7967C88.3308 56.7967 77.1421 61.3484 68.8925 69.4506C60.643 77.5528 56.0085 88.5417 56.0085 99.9999H43.1641Z" fill="#F48E6E"/>
<path d="M56 100C56 88.4472 60.6357 77.3674 68.8873 69.1981C77.1389 61.0289 88.3305 56.4395 100 56.4395C111.67 56.4395 122.861 61.0289 131.113 69.1981C139.364 77.3674 144 88.4472 144 100H142.749C142.749 88.7757 138.245 78.0108 130.228 70.0738C122.211 62.1368 111.338 57.6778 100 57.6778C88.6622 57.6778 77.7888 62.1368 69.7718 70.0738C61.7548 78.0108 57.2509 88.7757 57.2509 100H56Z" fill="#EB7854"/>
<path d="M57.168 100C57.168 88.5958 61.6808 77.6585 69.7136 69.5944C77.7464 61.5304 88.6412 57 100.001 57C111.361 57 122.256 61.5304 130.289 69.5944C138.322 77.6585 142.835 88.5957 142.835 100L131.111 100C131.111 91.717 127.834 83.7732 122 77.9162C116.165 72.0592 108.252 68.7688 100.001 68.7688C91.7504 68.7688 83.8374 72.0592 78.0031 77.9162C72.1688 83.7732 68.8911 91.717 68.8911 100H57.168Z" fill="#F4A66E"/>
<path d="M68 99.9996C68 91.6549 71.3714 83.6521 77.3726 77.7516C83.3737 71.851 91.5131 68.5361 100 68.5361C108.487 68.5361 116.626 71.851 122.627 77.7516C128.629 83.6521 132 91.6549 132 99.9995L129.48 99.9995C129.48 92.3121 126.374 84.9394 120.846 79.5036C115.317 74.0677 107.819 71.0139 100 71.0139C92.1814 71.0139 84.6831 74.0677 79.1545 79.5036C73.6259 84.9394 70.52 92.3121 70.52 99.9996H68Z" fill="#F29363"/>
</svg>
