<svg width="21" height="21" viewBox="0 0 21 21" fill="none" xmlns="http://www.w3.org/2000/svg">
<path fill-rule="evenodd" clip-rule="evenodd" d="M12.5828 13.9228C12.8204 14.0893 13.1211 14.3001 13.2091 14.7039C13.6366 16.6656 17.2703 20.3687 18.7938 20.4966C19.4979 20.5557 20.5 19.831 20.5 19.3284C20.5 18.8258 20.2813 17.878 19.4462 16.9787C19.3473 16.8721 19.23 16.7442 19.0986 16.6009C18.1216 15.5353 16.3661 13.6206 15.5839 13.3285C15.1168 13.1541 14.8812 13.134 14.7094 13.1193C14.5549 13.1062 14.4521 13.0974 14.2791 12.9847C14.0947 12.8645 13.9184 12.6802 13.7806 12.5361C13.7 12.4518 13.6325 12.3813 13.5844 12.3455C14.0628 11.6225 15.0092 9.79564 14.9675 8.27209C14.9153 6.36765 14.4195 3.40519 12.149 1.95041C9.87863 0.49563 6.85141 -0.00693023 4.71148 1.10399C2.57155 2.21491 0.640388 4.38386 0.509904 7.18762C0.379421 9.99137 1.52768 13.4035 4.58099 14.5144C7.63431 15.6253 9.51329 15.3344 10.4528 14.8318C11.2044 14.4298 12.036 13.9413 12.3578 13.7473C12.4145 13.8048 12.4943 13.8607 12.5828 13.9228ZM3.65435 5.19698C4.17413 4.48047 5.47645 2.68522 7.54704 2.83667C10.0784 3.02182 12.5054 4.07984 12.6881 6.61909C12.8708 9.15834 12.7403 10.5338 11.044 11.8298C9.34771 13.1259 7.15559 13.0466 5.22443 12.2531C3.29327 11.4595 2.77134 8.68223 2.79743 7.65066C2.81831 6.8254 3.22368 5.86085 3.42375 5.48172C3.46176 5.46246 3.53868 5.35643 3.65435 5.19698Z" fill="#5B4670"/>
</svg>
