<svg width="50" height="50" viewBox="0 0 50 50" fill="none" xmlns="http://www.w3.org/2000/svg">
<path d="M25.0008 11.3C25.8008 11.3 26.4508 10.65 26.4508 9.85V5.4C26.4508 4.65 25.8008 4 25.0008 4C24.2008 4 23.5508 4.65 23.5508 5.45V9.9C23.5508 10.7 24.2008 11.3 25.0008 11.3Z" fill="#FFCC47"/>
<path d="M16.0515 12.6504C16.3015 13.1004 16.8015 13.3504 17.3015 13.3504C17.5515 13.3504 17.8015 13.3004 18.0015 13.1504C18.7015 12.7504 18.9015 11.9004 18.5015 11.2004L16.2515 7.35035C15.8515 6.65035 15.0015 6.45035 14.3015 6.85035C13.6015 7.25035 13.4015 8.10035 13.8015 8.80035L16.0515 12.6504Z" fill="#FFCC47"/>
<path d="M7.10027 16.5997L10.9503 18.8497C11.2003 18.9997 11.4003 19.0497 11.6503 19.0497C12.1503 19.0497 12.6003 18.7997 12.9003 18.3497C13.3003 17.6497 13.0503 16.7997 12.4003 16.3997L8.50027 14.1497C7.80027 13.7497 6.95027 13.9997 6.55027 14.6497C6.15027 15.3497 6.40027 16.1997 7.10027 16.5997Z" fill="#FFCC47"/>
<path d="M5.14922 26.7516H9.59922C10.3992 26.7516 11.0492 26.1016 11.0492 25.3016C11.0492 24.5016 10.3992 23.8516 9.59922 23.8516H5.14922C4.34922 23.8516 3.69922 24.5016 3.69922 25.3016C3.69922 26.1016 4.34922 26.7516 5.14922 26.7516Z" fill="#FFCC47"/>
<path d="M39 25.2996C39 26.0996 39.65 26.7496 40.45 26.7496H44.9C45.7 26.7496 46.35 26.0996 46.35 25.2996C46.35 24.4996 45.7 23.8496 44.9 23.8496H40.45C39.6 23.8496 39 24.4996 39 25.2996Z" fill="#FFCC47"/>
<path d="M38.3484 19.0492C38.5984 19.0492 38.8484 18.9992 39.0484 18.8492L42.8984 16.5992C43.5984 16.1992 43.7984 15.3492 43.3984 14.6492C42.9984 13.9492 42.1484 13.7492 41.4484 14.1492L37.5984 16.3992C36.8984 16.7992 36.6984 17.6492 37.0984 18.3492C37.3484 18.7492 37.8484 19.0492 38.3484 19.0492Z" fill="#FFCC47"/>
<path d="M31.9995 13.1997C32.1995 13.3497 32.4495 13.3997 32.6995 13.3997C33.1995 13.3997 33.6495 13.1497 33.9495 12.6997L36.1995 8.84967C36.5995 8.14967 36.3495 7.29966 35.6995 6.89966C34.9995 6.49966 34.1495 6.74966 33.7495 7.39966L31.4995 11.2497C31.0495 11.9497 31.2995 12.7997 31.9995 13.1997Z" fill="#FFCC47"/>
<path d="M47.3 31.05H34.45C35.5 29.4 36.05 27.4 36.05 25.3C36.05 19.2 31.1 14.25 25 14.25C18.9 14.25 13.95 19.2 13.95 25.3C13.95 27.4 14.55 29.35 15.55 31.05H2.7C1.9 31.05 1.25 31.7 1.25 32.5C1.25 33.3 1.9 33.95 2.7 33.95H17.35C17.5 33.75 17.65 33.55 17.85 33.35L21.85 29.35C23.6 27.6 26.45 27.6 28.2 29.35L32.2 33.35C32.4 33.55 32.55 33.75 32.7 33.95H47.35C48.15 33.95 48.8 33.3 48.8 32.5C48.75 31.7 48.1 31.05 47.3 31.05Z" fill="#FFCC47"/>
<path d="M25.9984 31.4496C25.4484 30.8996 24.5484 30.8996 23.9984 31.4496L19.9984 35.4496C19.4484 35.9996 19.4484 36.8996 19.9984 37.4496C20.5484 37.9996 21.4484 37.9996 21.9984 37.4496L23.5984 35.8496V44.4996C23.5984 45.2996 24.2484 45.9496 25.0484 45.9496C25.8484 45.9496 26.4984 45.2996 26.4984 44.4996V35.9496L27.9984 37.4996C28.2984 37.7996 28.6484 37.8996 28.9984 37.8996C29.3484 37.8996 29.7484 37.7496 29.9984 37.4996C30.5484 36.9496 30.5484 36.0496 29.9984 35.4996L25.9984 31.4496Z" fill="#FFCC47"/>
</svg>
