<svg class="styled__DepartmentIcon-sc-ous21h-10 jANaHB" version="1.1" id="Слой_1" xmlns="http://www.w3.org/2000/svg" x="0px" y="0px" viewBox="0 0 340 100" xml:space="preserve"><style type="text/css">.st0{fill:#231F20;}.st1{fill-rule:evenodd;clip-rule:evenodd;fill:#231F20;}</style><g><g><g><path class="st0" d="M51.7,99.4L51,98.6c-3.8-3.8-8.4-5.5-14.4-5.5h-9.3c-10,0-16.3-5.7-16.3-14.8V2.7h81.4v75.7
 c0,9.1-6.2,14.8-16.2,14.8h-9.3c-6,0-10.6,1.7-14.4,5.5L51.7,99.4z M13.2,4.9v73.5c0,7.9,5.3,12.6,14.1,12.6h9.3
 c6.1,0,11.1,1.8,15.1,5.4c4-3.6,9-5.4,15.1-5.4h9.3c8.8,0,14-4.7,14-12.6V4.9H13.2z"></path></g><g><path class="st0" d="M115.8,24.6h-2.1v-2.8h-5.4v2.8h-2.2l-0.1-4.7h0.8c0.3-0.3,0.6-0.8,0.8-1.5c0.2-0.7,0.3-1.6,0.4-2.7l0.3-5.3
 h6.6v9.5h1.2L115.8,24.6z M109.2,19.8h3.3v-7.6h-2.1l-0.2,3.1C110.1,17.3,109.8,18.8,109.2,19.8z"></path><path class="st0" d="M123.1,16.8h-3.6v3h4.2v1.9h-6.5V10.4h6.5v1.9h-4.2V15h3.6V16.8z"></path><path class="st0" d="M133,21.8h-2.3v-9.5h-3.4v9.5h-2.3V10.4h8V21.8z"></path><path class="st0" d="M140.3,19.4h-3.1l-0.6,2.3h-2.4l3.6-11.4h2.1l3.6,11.4h-2.5L140.3,19.4z M137.7,17.5h2.1l-1.1-4.1
 L137.7,17.5z"></path><path class="st0" d="M146.8,17.7v4h-2.3V10.4h3.9c1.1,0,2,0.3,2.7,1c0.7,0.7,1,1.6,1,2.7c0,1.1-0.3,2-1,2.6c-0.7,0.6-1.6,1-2.8,1
 H146.8z M146.8,15.8h1.6c0.4,0,0.8-0.1,1-0.4c0.2-0.3,0.4-0.7,0.4-1.3c0-0.6-0.1-1-0.4-1.4c-0.2-0.3-0.6-0.5-1-0.5h-1.6V15.8z"></path><path class="st0" d="M161,12.3h-2.8v9.5h-2.3v-9.5h-2.8v-1.9h7.9V12.3z"></path><path class="st0" d="M166.8,19.4h-3.1l-0.6,2.3h-2.4l3.6-11.4h2.1l3.6,11.4h-2.5L166.8,19.4z M164.1,17.5h2.1l-1.1-4.1
 L164.1,17.5z"></path><path class="st0" d="M173.9,10.4l2.2,8.2l2.1-8.2h3v11.4h-2.3v-3.1l0.2-4.8l-2.3,7.8h-1.6l-2.3-7.8l0.2,4.8v3.1h-2.3V10.4H173.9z"></path><path class="st0" d="M189,16.8h-3.6v3h4.2v1.9h-6.5V10.4h6.5v1.9h-4.2V15h3.6V16.8z"></path><path class="st0" d="M198.9,21.8h-2.3v-4.9h-3.4v4.9h-2.3V10.4h2.3V15h3.4v-4.6h2.3V21.8z"></path><path class="st0" d="M207.9,12.3h-2.8v9.5h-2.3v-9.5H200v-1.9h7.9V12.3z"></path><path class="st0" d="M114.7,40.7h-2.3v-9.5H109v9.5h-2.3V29.3h8V40.7z"></path><path class="st0" d="M118.8,36.7v4h-2.3V29.3h3.9c1.1,0,2,0.3,2.7,1c0.7,0.7,1,1.6,1,2.7c0,1.1-0.3,2-1,2.6c-0.7,0.6-1.6,1-2.8,1
 H118.8z M118.8,34.8h1.6c0.4,0,0.8-0.1,1-0.4c0.2-0.3,0.4-0.7,0.4-1.3c0-0.6-0.1-1-0.4-1.4c-0.2-0.3-0.6-0.5-1-0.5h-1.6V34.8z "></path><path class="st0" d="M131.5,35.8h-3.6v3h4.2v1.9h-6.5V29.3h6.5v1.9h-4.2v2.7h3.6V35.8z"></path><path class="st0" d="M142.6,43.5h-2.1v-2.8h-5.4v2.8h-2.2l-0.1-4.7h0.8c0.3-0.3,0.6-0.8,0.8-1.5c0.2-0.7,0.3-1.6,0.4-2.7l0.3-5.3
 h6.6v9.5h1.2L142.6,43.5z M136.1,38.8h3.3v-7.6h-2.1l-0.2,3.1C137,36.3,136.6,37.7,136.1,38.8z"></path><path class="st0" d="M152,40.7h-2.3v-9.5h-3.4v9.5H144V29.3h8V40.7z"></path><path class="st0" d="M156.2,36.7v4h-2.3V29.3h3.9c1.1,0,2,0.3,2.7,1c0.7,0.7,1,1.6,1,2.7c0,1.1-0.3,2-1,2.6c-0.7,0.6-1.6,1-2.8,1
 H156.2z M156.2,34.8h1.6c0.4,0,0.8-0.1,1-0.4c0.2-0.3,0.4-0.7,0.4-1.3c0-0.6-0.1-1-0.4-1.4c-0.2-0.3-0.6-0.5-1-0.5h-1.6V34.8z"></path><path class="st0" d="M168.6,29.3h2.3v11.4h-2.3v-7.5l-3.4,7.5h-2.3V29.3h2.3v7.6L168.6,29.3z"></path><path class="st0" d="M180.7,40.7h-2.3v-4.9H175v4.9h-2.3V29.3h2.3v4.6h3.4v-4.6h2.3V40.7z"></path><path class="st0" d="M188.1,29.3h2.3v11.4h-2.3v-7.5l-3.4,7.5h-2.3V29.3h2.3v7.6L188.1,29.3z"></path><path class="st0" d="M195.2,29.3l2.2,8.2l2.1-8.2h3v11.4h-2.3v-3.1l0.2-4.8l-2.3,7.8h-1.6l-2.3-7.8l0.2,4.8v3.1h-2.3V29.3H195.2z"></path><path class="st0" d="M210,38.4h-3.1l-0.6,2.3h-2.4l3.6-11.4h2.1l3.6,11.4h-2.5L210,38.4z M207.3,36.5h2.1l-1.1-4.1L207.3,36.5z"></path><path class="st0" d="M220.5,31.2h-2.8v9.5h-2.3v-9.5h-2.8v-1.9h7.9V31.2z"></path><path class="st0" d="M227.8,35.8h-3.6v3h4.2v1.9h-6.5V29.3h6.5v1.9h-4.2v2.7h3.6V35.8z"></path><path class="st0" d="M237.7,29.3v11.4h-2.3v-9.5h-2.1l-0.2,4c-0.1,1.3-0.2,2.4-0.4,3.2c-0.2,0.8-0.6,1.4-1,1.7
 c-0.5,0.4-1.1,0.6-1.8,0.6h-0.6v-1.9l0.3,0c0.5-0.1,0.8-0.4,1-0.9c0.2-0.6,0.3-1.6,0.4-3l0.1-5.5H237.7z"></path><path class="st0" d="M241.9,33.4h1.4c1.2,0,2.1,0.3,2.8,1s1,1.5,1,2.6c0,1.1-0.3,2-1,2.6c-0.7,0.7-1.6,1-2.7,1h-3.8V29.3h2.3
 V33.4z M241.9,35.3v3.5h1.4c0.4,0,0.8-0.2,1.1-0.5c0.3-0.3,0.4-0.8,0.4-1.3c0-0.5-0.1-0.9-0.4-1.2c-0.3-0.3-0.6-0.5-1.1-0.5
 H241.9z"></path><path class="st0" d="M256.1,36.9c-0.1,1.3-0.4,2.3-1.1,2.9c-0.7,0.7-1.6,1-2.8,1c-1.3,0-2.3-0.4-3-1.3c-0.7-0.8-1-2.1-1-3.6v-1.9
 c0-1.6,0.4-2.8,1.1-3.6c0.7-0.8,1.7-1.3,3-1.3c1.2,0,2.2,0.3,2.8,1s1,1.7,1.1,3h-2.3c0-0.8-0.1-1.4-0.4-1.7
 c-0.2-0.3-0.6-0.5-1.2-0.5c-0.6,0-1.1,0.2-1.3,0.6s-0.4,1.1-0.4,2.1V36c0,1.1,0.1,1.9,0.4,2.3c0.3,0.4,0.7,0.6,1.3,0.6
 c0.6,0,1-0.1,1.3-0.4c0.2-0.3,0.4-0.8,0.4-1.6H256.1z"></path><path class="st0" d="M264.7,31.2h-2.8v9.5h-2.3v-9.5h-2.8v-1.9h7.9V31.2z"></path><path class="st0" d="M266,40.7V29.3h3.5c1.2,0,2.1,0.3,2.7,0.8c0.6,0.5,0.9,1.3,0.9,2.3c0,0.6-0.1,1.1-0.4,1.5
 c-0.3,0.4-0.6,0.7-1,0.9c0.5,0.1,0.9,0.4,1.2,0.9c0.3,0.4,0.4,1,0.4,1.6c0,1.1-0.3,1.9-0.9,2.5c-0.6,0.6-1.5,0.8-2.6,0.8H266z
 M268.3,34.1h1.2c0.9,0,1.4-0.5,1.4-1.4c0-0.5-0.1-0.9-0.3-1.1c-0.2-0.2-0.5-0.3-1-0.3h-1.2V34.1z M268.3,35.8v3h1.5
 c0.4,0,0.7-0.1,0.9-0.4c0.2-0.3,0.3-0.6,0.3-1.1c0-1-0.4-1.5-1.1-1.6H268.3z"></path><path class="st0" d="M280.4,38.4h-3.1l-0.6,2.3h-2.4l3.6-11.4h2.1l3.6,11.4H281L280.4,38.4z M277.8,36.5h2.1l-1.1-4.1L277.8,36.5
 z"></path><path class="st0" d="M112.2,48.3h2.3v11.4h-2.3v-7.5l-3.4,7.5h-2.3V48.3h2.3v7.6L112.2,48.3z"></path><path class="st0" d="M125.7,48.3h2.3v11.4h-2.3v-7.5l-3.4,7.5H120V48.3h2.3v7.6L125.7,48.3z"></path><path class="st0" d="M137.8,59.7h-2.3v-4.9h-3.4v4.9h-2.3V48.3h2.3v4.6h3.4v-4.6h2.3V59.7z"></path><path class="st0" d="M147.6,59.7h-2.3v-4.9h-3.4v4.9h-2.3V48.3h2.3v4.6h3.4v-4.6h2.3V59.7z"></path><path class="st0" d="M157.5,55c0,1.5-0.4,2.7-1.1,3.6c-0.7,0.8-1.7,1.3-3,1.3c-1.3,0-2.3-0.4-3-1.3c-0.7-0.8-1.1-2-1.1-3.5v-1.9
 c0-1.6,0.4-2.8,1.1-3.7c0.7-0.9,1.7-1.3,3-1.3c1.3,0,2.3,0.4,3,1.3c0.7,0.9,1.1,2.1,1.1,3.6V55z M155.2,53.1c0-1-0.1-1.8-0.4-2.3
 c-0.3-0.5-0.7-0.8-1.4-0.8c-0.6,0-1.1,0.2-1.4,0.7s-0.4,1.2-0.5,2.2v2c0,1,0.1,1.7,0.4,2.2c0.3,0.5,0.8,0.7,1.4,0.7
 c0.6,0,1-0.2,1.3-0.7c0.3-0.5,0.4-1.2,0.4-2.1V53.1z"></path><path class="st0" d="M159.1,59.7V48.3h3.5c1.2,0,2.1,0.3,2.7,0.8c0.6,0.5,0.9,1.3,0.9,2.3c0,0.6-0.1,1.1-0.4,1.5
 c-0.3,0.4-0.6,0.7-1,0.9c0.5,0.1,0.9,0.4,1.2,0.9c0.3,0.4,0.4,1,0.4,1.6c0,1.1-0.3,1.9-0.9,2.5c-0.6,0.6-1.5,0.8-2.6,0.8H159.1z
 M161.4,53.1h1.2c0.9,0,1.4-0.5,1.4-1.4c0-0.5-0.1-0.9-0.3-1.1s-0.5-0.3-1-0.3h-1.2V53.1z M161.4,54.7v3h1.5
 c0.4,0,0.7-0.1,0.9-0.4c0.2-0.3,0.3-0.6,0.3-1.1c0-1-0.4-1.5-1.1-1.6H161.4z"></path><path class="st0" d="M173.6,57.4h-3.1l-0.6,2.3h-2.4l3.6-11.4h2.1l3.6,11.4h-2.5L173.6,57.4z M170.9,55.4h2.1l-1.1-4.1
 L170.9,55.4z"></path><path class="st0" d="M177.6,48.3h2.3v9.5h3.4v-9.5h2.3v9.5h1.4l-0.2,4.6h-2.1v-2.7h-7.1V48.3z"></path><path class="st0" d="M194,48.3h2.3v11.4H194v-7.5l-3.4,7.5h-2.3V48.3h2.3v7.6L194,48.3z"></path><path class="st0" d="M206.1,55c0,1.5-0.4,2.7-1.1,3.6c-0.7,0.8-1.7,1.3-3,1.3c-1.3,0-2.3-0.4-3-1.3c-0.7-0.8-1.1-2-1.1-3.5v-1.9
 c0-1.6,0.4-2.8,1.1-3.7c0.7-0.9,1.7-1.3,3-1.3c1.3,0,2.3,0.4,3,1.3c0.7,0.9,1.1,2.1,1.1,3.6V55z M203.8,53.1c0-1-0.1-1.8-0.4-2.3
 c-0.3-0.5-0.7-0.8-1.4-0.8c-0.6,0-1.1,0.2-1.4,0.7c-0.3,0.5-0.4,1.2-0.5,2.2v2c0,1,0.1,1.7,0.4,2.2c0.3,0.5,0.8,0.7,1.4,0.7
 c0.6,0,1-0.2,1.3-0.7c0.3-0.5,0.4-1.2,0.4-2.1V53.1z"></path><path class="st0" d="M215.8,59.7h-2.3v-4.9h-3.4v4.9h-2.3V48.3h2.3v4.6h3.4v-4.6h2.3V59.7z"></path><path class="st0" d="M225.6,59.7h-2.3v-4.9h-3.4v4.9h-2.3V48.3h2.3v4.6h3.4v-4.6h2.3V59.7z"></path><path class="st0" d="M235.5,55c0,1.5-0.4,2.7-1.1,3.6c-0.7,0.8-1.7,1.3-3,1.3c-1.3,0-2.3-0.4-3-1.3c-0.7-0.8-1.1-2-1.1-3.5v-1.9
 c0-1.6,0.4-2.8,1.1-3.7c0.7-0.9,1.7-1.3,3-1.3c1.3,0,2.3,0.4,3,1.3c0.7,0.9,1.1,2.1,1.1,3.6V55z M233.2,53.1c0-1-0.1-1.8-0.4-2.3
 c-0.3-0.5-0.7-0.8-1.4-0.8c-0.6,0-1.1,0.2-1.4,0.7s-0.4,1.2-0.5,2.2v2c0,1,0.1,1.7,0.4,2.2c0.3,0.5,0.8,0.7,1.4,0.7
 c0.6,0,1-0.2,1.3-0.7c0.3-0.5,0.4-1.2,0.4-2.1V53.1z"></path><path class="st0" d="M243.5,50.2h-4.1v9.5h-2.3V48.3h6.4V50.2z"></path><path class="st0" d="M252.5,55c0,1.5-0.4,2.7-1.1,3.6c-0.7,0.8-1.7,1.3-3,1.3c-1.3,0-2.3-0.4-3-1.3c-0.7-0.8-1.1-2-1.1-3.5v-1.9
 c0-1.6,0.4-2.8,1.1-3.7c0.7-0.9,1.7-1.3,3-1.3c1.3,0,2.3,0.4,3,1.3c0.7,0.9,1.1,2.1,1.1,3.6V55z M250.1,53.1c0-1-0.1-1.8-0.4-2.3
 c-0.3-0.5-0.7-0.8-1.4-0.8c-0.6,0-1.1,0.2-1.4,0.7s-0.4,1.2-0.5,2.2v2c0,1,0.1,1.7,0.4,2.2c0.3,0.5,0.8,0.7,1.4,0.7
 c0.6,0,1-0.2,1.3-0.7c0.3-0.5,0.4-1.2,0.4-2.1V53.1z"></path><path class="st0" d="M260.1,55.7v4h-2.3V48.3h3.9c1.1,0,2,0.3,2.7,1c0.7,0.7,1,1.6,1,2.7c0,1.1-0.3,2-1,2.6c-0.7,0.6-1.6,1-2.8,1
 H260.1z M260.1,53.8h1.6c0.4,0,0.8-0.1,1-0.4c0.2-0.3,0.4-0.7,0.4-1.3c0-0.6-0.1-1-0.4-1.4c-0.2-0.3-0.6-0.5-1-0.5h-1.6V53.8z"></path><path class="st0" d="M271,57.4h-3.1l-0.6,2.3h-2.4l3.6-11.4h2.1l3.6,11.4h-2.5L271,57.4z M268.3,55.4h2.1l-1.1-4.1L268.3,55.4z"></path><path class="st0" d="M279.7,51.4c0-0.4-0.1-0.8-0.3-1c-0.2-0.3-0.5-0.4-0.9-0.4c-0.3,0-0.6,0.1-0.9,0.4c-0.2,0.2-0.3,0.6-0.3,1
 h-2.3c0-0.6,0.2-1.2,0.5-1.7c0.3-0.5,0.7-0.9,1.3-1.1c0.5-0.3,1.1-0.4,1.8-0.4c1.1,0,2,0.3,2.6,0.8c0.6,0.6,1,1.4,1,2.4
 c0,0.5-0.1,1-0.4,1.4c-0.3,0.4-0.6,0.8-1.1,1c0.5,0.2,0.9,0.6,1.2,1c0.3,0.4,0.4,1,0.4,1.7c0,1-0.3,1.8-1,2.4
 c-0.7,0.6-1.6,0.9-2.7,0.9c-0.7,0-1.3-0.1-1.9-0.4c-0.6-0.3-1-0.6-1.3-1.1c-0.3-0.5-0.5-1.1-0.5-1.8h2.3c0,0.4,0.1,0.7,0.4,1
 c0.2,0.3,0.6,0.4,1,0.4c0.4,0,0.8-0.1,1-0.4c0.3-0.3,0.4-0.6,0.4-1.1c0-0.6-0.1-1-0.3-1.3c-0.2-0.3-0.6-0.4-1-0.4h-1.2V53h1.2
 C279.3,52.9,279.7,52.4,279.7,51.4z"></path><path class="st0" d="M283.8,59.7V48.3h3.5c1.2,0,2.1,0.3,2.7,0.8c0.6,0.5,0.9,1.3,0.9,2.3c0,0.6-0.1,1.1-0.4,1.5
 c-0.3,0.4-0.6,0.7-1,0.9c0.5,0.1,0.9,0.4,1.2,0.9c0.3,0.4,0.4,1,0.4,1.6c0,1.1-0.3,1.9-0.9,2.5c-0.6,0.6-1.5,0.8-2.6,0.8H283.8z
 M286.1,53.1h1.2c0.9,0,1.4-0.5,1.4-1.4c0-0.5-0.1-0.9-0.3-1.1s-0.5-0.3-1-0.3h-1.2V53.1z M286.1,54.7v3h1.5
 c0.4,0,0.7-0.1,0.9-0.4c0.2-0.3,0.3-0.6,0.3-1.1c0-1-0.4-1.5-1.1-1.6H286.1z"></path><path class="st0" d="M298.3,48.3h2.3v11.4h-2.3v-7.5l-3.4,7.5h-2.3V48.3h2.3v7.6L298.3,48.3z"></path><path class="st0" d="M309.6,50.2h-2.8v9.5h-2.3v-9.5h-2.8v-1.9h7.9V50.2z"></path><path class="st0" d="M316.5,48.3h2.3v11.4h-2.3v-7.5l-3.4,7.5h-2.3V48.3h2.3v7.6L316.5,48.3z"></path><path class="st0" d="M324.9,59.7v-4.1h-1.2l-1.7,4.1h-2.5l2-4.9c-0.9-0.7-1.4-1.6-1.4-2.9c0-1.1,0.3-2,1-2.6
 c0.6-0.6,1.5-0.9,2.7-0.9h3.4v11.4H324.9z M322.5,52c0,0.6,0.1,1.1,0.3,1.4c0.2,0.3,0.6,0.4,1,0.4h1.1v-3.6h-1.1
 C322.9,50.2,322.5,50.8,322.5,52z"></path><path class="st0" d="M112.9,68.1H108v10.5h-0.9V67.3h5.8V68.1z"></path><path class="st0" d="M121.4,74.2c0,1.5-0.3,2.6-1,3.4c-0.6,0.8-1.5,1.2-2.7,1.2c-1.2,0-2.1-0.4-2.7-1.2c-0.7-0.8-1-1.9-1-3.4
 v-2.5c0-1.5,0.3-2.6,1-3.4c0.7-0.8,1.6-1.2,2.7-1.2c1.2,0,2.1,0.4,2.7,1.2c0.6,0.8,1,2,1,3.4V74.2z M120.5,71.7
 c0-1.2-0.2-2.2-0.7-2.8c-0.5-0.6-1.2-0.9-2.1-0.9c-0.9,0-1.6,0.3-2,0.9c-0.5,0.6-0.7,1.5-0.8,2.7v2.6c0,1.3,0.2,2.2,0.7,2.8
 c0.5,0.6,1.2,0.9,2.1,0.9c0.9,0,1.6-0.3,2.1-0.9c0.5-0.6,0.7-1.6,0.7-2.8V71.7z"></path><path class="st0" d="M124.7,74v4.6h-0.9V67.3h3.3c1,0,1.8,0.3,2.4,0.9c0.6,0.6,0.9,1.4,0.9,2.5c0,1.1-0.3,1.9-0.8,2.5
 c-0.6,0.6-1.4,0.9-2.4,0.9H124.7z M124.7,73.2h2.4c0.8,0,1.3-0.2,1.7-0.7c0.4-0.4,0.6-1.1,0.6-1.9c0-0.8-0.2-1.4-0.6-1.9
 c-0.4-0.5-1-0.7-1.7-0.7h-2.4V73.2z"></path><path class="st0" d="M139.5,74.2c0,1.5-0.3,2.6-1,3.4c-0.6,0.8-1.5,1.2-2.7,1.2c-1.2,0-2.1-0.4-2.7-1.2c-0.7-0.8-1-1.9-1-3.4
 v-2.5c0-1.5,0.3-2.6,1-3.4c0.7-0.8,1.6-1.2,2.7-1.2c1.2,0,2.1,0.4,2.7,1.2c0.6,0.8,1,2,1,3.4V74.2z M138.6,71.7
 c0-1.2-0.2-2.2-0.7-2.8c-0.5-0.6-1.2-0.9-2.1-0.9c-0.9,0-1.6,0.3-2,0.9c-0.5,0.6-0.7,1.5-0.8,2.7v2.6c0,1.3,0.2,2.2,0.7,2.8
 c0.5,0.6,1.2,0.9,2.1,0.9c0.9,0,1.6-0.3,2.1-0.9c0.5-0.6,0.7-1.6,0.7-2.8V71.7z"></path><path class="st0" d="M148.7,77.8h1.1l0,3.6h-0.9v-2.8h-7.1v2.8h-0.9v-3.6h0.7c0.4-0.5,0.8-1.4,1.1-2.6c0.3-1.2,0.5-2.5,0.5-3.9
 l0.2-4.1h5.4V77.8z M142.5,77.8h5.3v-9.7h-3.6l-0.1,3.3c-0.1,1.4-0.2,2.6-0.5,3.8C143.3,76.3,142.9,77.2,142.5,77.8z"></path><path class="st0" d="M157,75.5h-4.3l-1,3.2h-0.9l3.6-11.4h0.8l3.6,11.4H158L157,75.5z M153,74.6h3.8l-1.9-6.1L153,74.6z"></path><path class="st0" d="M165.4,67.3l3.5,10l3.5-10h1.2v11.4h-0.9v-4.9l0.1-5l-3.5,9.9h-0.7l-3.5-9.9l0.1,4.9v5h-0.9V67.3H165.4z"></path><path class="st0" d="M183.3,74.2c0,1.5-0.3,2.6-1,3.4c-0.6,0.8-1.5,1.2-2.7,1.2c-1.2,0-2.1-0.4-2.7-1.2c-0.7-0.8-1-1.9-1-3.4
 v-2.5c0-1.5,0.3-2.6,1-3.4c0.7-0.8,1.6-1.2,2.7-1.2c1.2,0,2.1,0.4,2.7,1.2c0.6,0.8,1,2,1,3.4V74.2z M182.4,71.7
 c0-1.2-0.2-2.2-0.7-2.8c-0.5-0.6-1.2-0.9-2.1-0.9c-0.9,0-1.6,0.3-2,0.9c-0.5,0.6-0.7,1.5-0.8,2.7v2.6c0,1.3,0.2,2.2,0.7,2.8
 c0.5,0.6,1.2,0.9,2.1,0.9c0.9,0,1.6-0.3,2.1-0.9c0.5-0.6,0.7-1.6,0.7-2.8V71.7z"></path><path class="st0" d="M192.5,75.1c-0.1,1.3-0.4,2.2-1,2.8c-0.6,0.6-1.4,0.9-2.5,0.9c-1.1,0-2-0.4-2.6-1.2c-0.6-0.8-1-2-1-3.4v-2.5
 c0-1.4,0.3-2.6,1-3.4c0.6-0.8,1.5-1.2,2.7-1.2c1.1,0,1.9,0.3,2.5,0.9c0.6,0.6,0.9,1.5,1,2.8h-0.9c-0.1-1-0.3-1.8-0.7-2.2
 c-0.4-0.4-1-0.7-1.8-0.7c-0.9,0-1.5,0.3-2,1c-0.5,0.6-0.7,1.6-0.7,2.8v2.4c0,1.2,0.2,2.2,0.7,2.8c0.5,0.7,1.1,1,2,1
 c0.9,0,1.5-0.2,1.9-0.7c0.4-0.4,0.6-1.2,0.7-2.2H192.5z"></path><path class="st0" d="M197,73.3h-1.3v5.3h-0.9V67.3h0.9v5.2h1.2l3.6-5.2h1.1l-3.9,5.6l4.2,5.8h-1.1L197,73.3z"></path><path class="st0" d="M203.7,78.7V67.3h2.9c1,0,1.8,0.3,2.3,0.8c0.5,0.5,0.8,1.2,0.8,2.2c0,0.6-0.1,1.1-0.4,1.5
 c-0.3,0.4-0.6,0.7-1.1,0.9c0.6,0.1,1,0.5,1.3,1c0.3,0.5,0.5,1.1,0.5,1.8c0,1-0.3,1.8-0.8,2.4c-0.5,0.6-1.3,0.9-2.3,0.9H203.7z
 M204.6,72.4h2.1c0.7,0,1.2-0.2,1.6-0.5c0.4-0.4,0.6-0.9,0.6-1.6c0-0.7-0.2-1.3-0.6-1.6c-0.4-0.3-0.9-0.5-1.7-0.5h-2V72.4z
 M204.6,73.2v4.6h2.4c0.7,0,1.2-0.2,1.6-0.6c0.4-0.4,0.6-1,0.6-1.7c0-0.7-0.2-1.2-0.5-1.6s-0.9-0.6-1.5-0.6H204.6z"></path><path class="st0" d="M213.2,72.2h2.3c1,0,1.8,0.3,2.4,0.9c0.6,0.6,0.8,1.4,0.8,2.4c0,1-0.3,1.8-0.9,2.4c-0.6,0.6-1.4,0.9-2.4,0.9
 h-3.2V67.3h0.9V72.2z M213.2,73v4.8h2.4c0.7,0,1.3-0.2,1.7-0.7c0.4-0.4,0.6-1,0.6-1.8c0-0.7-0.2-1.3-0.6-1.7
 c-0.4-0.4-1-0.6-1.7-0.6H213.2z M221.1,78.7h-0.9V67.3h0.9V78.7z"></path></g><path class="st1" d="M86.6,53.4c-0.1-0.9,0.3-2-0.2-2.7c-0.5-0.7-3.9-4.1-4.3-5.2c-0.4-1.1-0.6-2.3-1.6-2.1c-1,0.2-1.6,1.4-2,1.8
 c-0.4,0.4-1.6,1.2-2.1,1.2c-0.5,0-0.7-0.4-0.7-0.8c-0.1-0.4-0.4-2.9-2.4-5.2c-2-2.3-2-2.5-2.2-3.1c-0.2-0.7-2.7-7.4-2.8-7.8
 c0.6,0,2.7,0.3,3.4,0.7c0.7,0.3,1.3,1,1.9,1.4c0.5,0.5,1.2,0.4,1.4,0.2c0.2-0.2,0.1-0.3,0.1-0.3l-0.8-0.9c0,0,0.8,0.3,1.4,0.9
 c0.4,0.1,1-0.2,1.1-0.8c0.1-0.6-0.1-0.9-0.1-0.9s0.2-0.8,0-1.3c-0.2-0.5-1-0.7-1.1-0.8c-0.7-1.1-3.4-4.8-3.4-4.8
 c-0.1-1-0.7-2.1-1.5-2.3c0.7,0.1,1.5,0.1,1.5,0.1c-0.5-0.7-0.6-2.2-2-2.4c-1.5-0.2-1.9,0.2-2.3,0.1c-0.4-0.1-2.1-1.8-2.6-1.8
 c-0.5,0,0.3,0.9,0,0.9c-0.3,0-2.3-0.6-2.6-0.3c-0.3,0.3,1.2,1.3,0.7,1.5c-0.5,0.2-2.8-0.1-4.1,0.5c-0.2-0.4-0.8-1.1-2.6-0.4
 c-1.8,0.7-2.5,1.4-2.5,1.4c0.1-0.3-0.1-1.4-0.1-1.4c0.5-1,0.4-2,0.4-3.1c0-1.1-0.7-3.3-1.2-3.9c-0.1-0.3,0.2-0.2,0.5-0.5
 c0.3-0.3,1-1.6,0.6-2.7c-0.4-1.1-0.6-0.4-1.5-0.5c-0.5,0-1.3-1-2.3-0.7c-0.5,0.1-1.1,0.4-1.6,0.7c-1,0.5-4,1.6-6.2,0.4
 c-0.1,0.5,0.9,2.1,2.3,2.6c-0.4,0-0.8,0-1.2,0c-0.6,0-0.2,0.3,0.2,0.6c0.4,0.3,1.6,0.9,2.8,0.6c0.6,0.4,1.5,0.3,1.9,0.1
 c0.4-0.2,0.9-0.3,0.8,0c-0.1,0.3-1.1,1-1.3,1.7c-0.2,0.7-0.4,3.2-0.4,3.2c-0.4,0.6-0.6,1.9-0.6,1.9c-1-0.3-1.7-0.5-2.3-0.4
 c-0.6,0.1-0.6,0.3-1,0.1c-0.4-0.2-1.2-0.9-2.2-0.5c-1.1,0.4-2.1,1.4-2.6,1.7c-0.5,0.3-1,0.6-1.3,0.3c-0.3-0.3-1-2.1-1-2.1
 s-0.4-1.7-1.4-1.6c-1,0.1-0.5-0.8-0.6-1c-0.1-0.3-0.6-0.3-0.5-0.5c0.1-0.3-0.3-0.6-0.3-0.6c0.2-0.4,0-0.7-0.4-0.8
 c-0.3,0-0.5,0-0.7,0c0,0-3.3-4.6-3.5-4.8c-0.2-0.2-0.5-0.4-0.6-0.5c-0.2,0-0.4-0.1-0.6,0.1c-0.2,0.1-0.3,0.2-0.4,0.3
 c-0.3,0.3,0.2,1,0.4,1.2c0.1,0.1,3.5,5,3.5,5c-0.2,0.3-0.3,0.5-0.3,0.8c0.1,0.4,0.9,1.4,1.3,1.6c0.3,0.3,0.3,1.2,0.5,1.6
 c0.5,1,1.4,2.3,1.5,2.8c0.1,0.4-0.2,1.2-0.2,1.2s-3.2,2.4-2.3,3.9c0.9-0.2,2.2-0.7,2.5-0.2c0.4,0.5,0.2,1.5-0.3,1.9
 c-0.5,0.4-4.5,0.9-5,2.6c-0.5,1.8,1,1.9,0.7,3c-0.3,1.1-2.9,1.4-2.3,3.2c-1.2,1-1.6,2.1-1.3,2.6c0.2,0.5,0.7,0.2,1.4-0.2
 c0.7-0.4,5.5-1.4,7.8-0.1c2.3,1.2,2.4,2.3,3.2,2.6c0.8,0.3,1.4,0.2,1.4,0.2C40,43.4,41,44.2,41,44.2c-0.1,0.8-0.2,1-0.2,1
 s-3.7,0.3-5.3,1c-1-0.9-4.3-3.5-7.6-3c-3.3,0.4-5.5,5.4-5.8,6.4c-0.3,0.9-0.3,2.1-1,3.9c-0.9-0.4-2-1-2.6-1.9
 c-1.1-1.4-0.2-2.7,0.6-3.1c0.8-0.4,0.1,0.4,0.4,0.7c0.3,0.3,0.9,1.1,1.1,1.4c0,0,0.4-0.3,0.6-1c0-1-0.5-2-1.5-2.1
 c-2.6,0.1-3.4,3.2-2.2,5.1c0.6,1.1,1.7,1.7,2.9,2.4c-1.2,2.4-3.3,6-0.3,11.6c0.2-1.4,0.6-5.2,2-6.5c0.8-0.8,1.7-1.2,2.5-2
 c1.1,1.5,0.8,2.5,0.7,4c-0.1,1.7-2,3.9-2.4,5.8c-0.4,1.9,0.2,3.5,1.6,5.1c0.2,0.3,0.6,0.6,1,0.9c-0.7,0.9-1.2,1.2-0.9,1.9
 c0.3,0.9,1,1.1,1.4,1.9c0.4,0.8,0.6,3,0.6,3c-0.3,0.5-0.5,1.2,0.1,1.7c0.5,0.5,2.6,0.9,3.6,0.6c0.1-1.6-0.6-2.1-1-2.7
 c-0.4-0.6-1.2-1.4-1.6-2.3c-0.3-0.8,0-2.2,0.1-2.7c1.6,0.7,3.4,1.3,4.7,1.4c-1,3.1,0.2,7.4,4.7,6.6c4.5-0.7,4.2-4.7,3.2-6.1
 c0.7-0.6,2.1-0.5,2.4-0.1c0.3,0.5,0.6,1.4,1,2.4c0,0-1.1,1.7-1.4,2.8c-0.4,1,1.3,1.3,1.3,2c0,0.7-1.1,0.5-2.2,0.4
 c-1.1-0.1-1.4,0.6-1.7,1.3c-0.8-0.1-2,0.9-1.9,1.9c4.2-2.5,10.3,1.2,10.5,1.5c0.1,0.1,0.1-0.7,0.1-1.1c-1-1.4-3.7-1.5-5.3-2.3
 c1.2-0.6,2-0.3,3.5,0l-0.1,0c0.6,0.2,3.6,0.7,4.8,1.4c0.2-1.1-0.5-2.4-0.8-2.8c-0.3-0.6-0.7-1-0.8-1.4c-0.2-0.4-0.1-0.8,0.1-1.5
 c0.7-0.1,5.3,1.1,7.5,2.1c0.1-0.6,0.1-1.2,0-1.6c0.5-0.2,1.1-0.3,1.6-0.4c0.7,1.1,2.4,2.5,4.2,3.2c0,0,0,0,0,0
 c0.1,0.2-0.8,0.9-0.8,1.2c-1.1,0-1.8,0.1-1.8,0.9c-1,0.3-1,1-0.5,2c-0.1-1.8,1.4-0.4,2.9-1.3l1.1-0.1c0.1,0.5,0.6,0.8,1.5,0.7
 c0.3-0.1,0.9-0.1,1.2-0.2c1.8-0.5,3.3-0.4,4.4,1.1c0.2-0.4,0.2-0.9-0.1-1.4c1.3-0.9,2.7-0.5,1.8,0.9c0.7-0.4,1.5-2.3,0.5-2.2
 c0.4-1.1,2.1-0.2,1.6,0.6c0.7-0.4,0.8-0.9,0-1.7c-0.1-0.6-0.6-0.8-1.6-0.6c-0.5-0.9-1.2-0.9-2.1-0.1c-0.9,0.4-2.7-0.3-3.1-0.9
 c0,0,0,0,0,0c0.2-0.6,0.2-1.2,0.1-2.1c0.8,0.2,1.6,0.8,2.3,1.2c1.4-1,3.8-3.4,4.6-8.4c0.3,0.1,1.2,0.2,1.7-0.1
 c-0.3-0.2-0.8-0.8-1-1.1c0.7,0.1,2,0,2.6-0.3c-0.8-0.3-1.8-1.3-2.4-2c-0.7-1.2-1.7-2.9-2.1-3.7c-0.5-1.2-1.2-1.1-1.7-0.4
 c0,0-1.7-2.5-1.7-3.3c0.1-0.8-0.5-1.9-1.3-1.3c-0.2,0.2-0.3,0.4-0.4,0.6l-0.3-2h-1.5l-1.4-2.2c0.4-0.2,0.6-0.3,0.6-0.3
 c2.3,0,5.2-0.6,6.9-1.4c1.7-0.8,2.2-1,2.2-1s2.2-0.8,2.7-0.6c0.5,0.2,3.1,2.9,3.1,3.5c0,0.6-0.3,1.1,0.3,1.6
 c0.5,0.5,1.4,1.5,1.3,2.6c-0.1,1.1-0.7,1.8-0.5,2.4c0.2,0.6,1.6,1.4,2.2,1.7c0.5,0.3,1,0.4,1-0.5c0.1-1-0.1-1.8-0.4-2.4
 c-0.3-0.6-0.7-1.2-0.9-2.1c-0.2-0.8-0.1-2.7-0.6-3.5c-0.5-0.8-1.5-1.7-2.3-2.8c-0.7-1.1-1.1-2-1.3-2.5c-0.2-0.5-1-1.4-1.7-1.4
 c-0.7,0-2,0.2-2.5,0.1c-0.3-0.1,0.1-0.3,0.7-0.6c0.6-0.3,3.7-4,4.1-4.1c0.4-0.1,0.8,0.4,1.2,0.8c0.4,0.4,2.1,2.2,2.1,2.3
 c0,0.1-0.1,0.8,0.1,1.3c0.1,0.5,1,0.5,1.1,0.7c0.1,0.2,0.6,1.3,0.4,1.8c-0.2,0.5-1,1.1-1.1,1.6c-0.1,0.5,0.7,2.1,2.3,2.5
 c0.5,0.1,0.6-0.3,0.7-1.1C87.4,56.6,86.7,54.3,86.6,53.4z M28.6,10.3c-0.7-1.1-0.5-1.2-0.2-1.3c0.3-0.1,3.7,5.1,3.7,5.1
 c-0.2,0.1-0.3,0.3-0.5,0.5C29.8,12.1,28.7,10.5,28.6,10.3z M33.3,17.1c-0.3,0.2-0.8,0.2-1-0.3c-0.2-0.5-0.8-0.3-0.5-1
 c0.3-0.7-0.1-1.3,0.3-1.4c0.4-0.1,0.8-0.5,1.3-0.2c0.1,0.1,0.1,0.2,0,0.3c-0.2,0.2-0.5,0.3-0.4,0.4c0.2,0.1,0.5,0,0.6,0.4
 c0.1,0.4-0.2,0.7-0.2,0.7s0.9-0.1,0.8,0.3C34.1,16.6,33.6,16.9,33.3,17.1z M58.8,26.2c-0.7,0.8-1.5,4.2-1.6,5.4
 c-0.1,1.3,0.7,4.8-0.1,6.3c-0.4,0.8-0.8,1-1.3,1.4c-1.3,0.9-1.9,0.7-2.4,0.7c0.3-2.1,1-3.1,1.6-3.6c0.1-0.1,0.2-0.2,0.4-0.3
 c0,0,0-0.7-0.2-2.3c-0.2-1.3,0.3-3.4,1.4-5.2c-0.7,0.6-1.4,1-2.3,1.4c0.5-1.5,1.3-2.6,2-3.4c0.8-1.3,2.2-1.9,2.2-1.9
 S60.1,24.6,58.8,26.2z M58.4,19.6c0,0-1.4,0.8-2.3,3.1c-1.5,0.8-3.2,2.8-3.7,7.3c-0.4,4-2.5,3.4-2.5,3.4c1.1,1.3,2,2.4,3.2,2.2
 c-0.9,0.8-1.3,2.6-1.3,2.6c-1.1-1.4-3.3-4.4-3.3-4.4s3.3-3.4,3.1-6.9C51.6,25.2,54.3,20.7,58.4,19.6z M52.4,16.2
 C52.3,16.2,52.3,16.2,52.4,16.2c-0.2,0-0.5,0-0.5,0s-0.4-0.4-0.8-0.4c-0.4,0-0.6,0.1-0.6,0.1s-0.4,0.4-0.3,0.4
 c0.3,0.3,0.5,0.4,0.8,0.4c0.2,0,0.7-0.1,0.7-0.1s0,0.6,0,0.7c0,0.1,0,0.4-0.1,0.4c-0.1,0-0.3,0-0.2,0.1c0.1,0.2,0.6,0.5,0.7,0.4
 c0.1-0.1,0-1.1,0-1.3c0-0.1,0-0.1,0-0.2c0,0,0.1,0,0.1,0.1c0.5,0.1,0.6,0,1.1,0c0.5,0,0.3,1.4-0.4,2.8c-0.7,1.4-1,1.2-1.8,0.5
 c-0.8-0.7-1.4-3-1.5-3.8c-0.1-0.8,0.9-1.2,1.3-1.2c2.2-0.3,2.1,0.4,2.5,0.7C53.9,16,52.7,16.2,52.4,16.2z M53.4,14.6
 c-0.2-0.2-1.4-0.4-2.4-0.4c-0.4-1.6,0.8-2.9,0.8-2.9C52.7,10.9,53.1,13.7,53.4,14.6z M47.1,11.6c-1.2,0.8-2.4,0.3-2.4,0.3
 c1.2,0,4-1.6,4-1.6S48.3,10.8,47.1,11.6z M47.1,10.5c-2.2,0.9-3.2-0.8-3.2-0.8s1.7,0.4,2.6,0.2c0.9-0.3,2.6-1.5,3.4-1.8
 c0.8-0.3,1.4-0.2,2.7,0.8C50.9,7.8,49.2,9.6,47.1,10.5z M50.4,24.6c-0.9,0.7-2.4,1.1-4.1,0.3c0.2,0.8,3.5,2,4.6,1.3
 c0,0.6-0.1,1.6-1.2,2.7c-0.7,0.7-2.2,0.7-4.8-0.7c-2.5-1.4-4.8-4.8-4.8-6.2c0-0.8-0.8-1.2-1.2-1.3C44.5,18,46,26.1,50.4,24.6z
 M33.7,37c-1.7-0.7-3.8-0.6-5.3,0.4c0,0-0.7-0.4,0.5-1.4c1.2-1.1,6.5-1.9,9.2-3.3c-2.5-0.8-6.8,0.2-7.5,0.8c0,0-0.7-0.9-0.4-1.7
 c2.6-3.9,12.3,0.4,12.3,0.4c-1.6,0.2-4.1,2.3-7.9,3.3c0.7,0.2,4.9-0.7,5.9-0.8c-0.3,0.2-0.6,1-2.9,1.9c0,0,2.3,0.3,4.1-0.8
 c2-1.1,1.7-0.7,1.7-0.1C41.3,40,35.4,37.8,33.7,37z M52.1,57.1c0.7,1.2,3.2,3.6,3.2,4.5c-0.1,0.6-1.1,0.5-2.3-0.1
 c-1.1-0.5-1.4-1.5-1.5-1.7c-0.6-0.2-0.8,0.1-0.8,0.1l-1.5-1.3c0.4-0.8,0.5-1.3,0.8-1.4c0.3-0.7,0.1-0.6,0.7-1.6
 c0.5-1,1.4-5.1,1.3-6c0,0,2.3-0.7,2.8-0.7C54.4,50.9,52.2,56.6,52.1,57.1z M56.2,50.4l2.3,2.5c0,0,0.1,1.1-0.3,1.7
 c-0.4,0.5-3.5,0.8-3.5,0.8C54.7,55.2,56.2,50.4,56.2,50.4z M39.7,68.9c0.3,1.3,1.4,1.3,1.9,1.9c0.2,0.2,0.4,0.7,0.6,1.3
 c-2.5-0.7-5.8-0.1-7.5,1.2c-0.9-0.1-2.6-0.2-5.4-1.7c0.3-0.8,0.7-1.5,0.9-1.8c0.6-0.9,2.3-1.9,3.3-2c1-0.1,2.7-0.8,4.2-1.3
 c1.5-0.6,3.7-1.8,4-1.9c0.3-0.1,0.4,0.3,0,1.2C41.2,66.6,39.4,67.6,39.7,68.9z M42.2,66.1c0.9-0.8,1.2-2,2-2.2
 c0.8-0.1,1.5,0.7,1.5,0.7c-0.4,1-3,2.2-3.4,2.7C41.9,68,41.3,66.9,42.2,66.1z M43.7,57c-0.8-0.2-0.9-5.1,0.5-9.8
 c0,0,6.3,0.7,6.7,1c0.4,0.3-0.1,0.9-0.1,2c0,1.1-1.2,5.7-1.2,5.7C48,56.2,44.5,57.2,43.7,57z M46.2,44.8c-0.7-1,2.9-1.2,3.5-0.8
 c0.9,0.6,1.8,1.2,3,3.2C52.8,47.2,46.9,45.8,46.2,44.8z M45,42.9c-1.1,0.6-2.7,0.8-3.4-0.2c-0.7-1,1.9-1.8,2.8-1.5
 c0.9,0.3,1.7,0,2.6-0.7c0.9-0.7,1.2,0,1.4,0.7C48.4,41.2,46.1,42.3,45,42.9z M25.1,53.9c-0.4,2.6-1.9,4.2-3.5,5.1
 c0.8-1.1,1.3-2.7,1.4-4.4c0.2-2.7,1.3-5.1,3-7.5c0,0-2.1,1.3-3.1,2.7c1.3-3.8,4.3-5.7,5.6-6c3.5-0.5,6.2,2.7,6.2,2.7
 s-0.2,0.6-0.5,0.8c0,0-2.2-0.6-4-0.3C27.2,47.5,25.5,51.3,25.1,53.9z M26.6,72.2c-1.3-1.4-1.6-2.8-1.6-2.8s0.9,1,2,2
 C26.9,71.6,26.7,71.9,26.6,72.2z M28.2,80.1c0.5,1.3-0.4,0.4-0.5,0.9c-0.1,0.5,0.7,0.9,0.4,1.3c-0.2,0.2-0.8-0.2-1.1-0.7
 c-0.2-0.5,0.5-1,0.2-1.8c-0.2-0.7-0.1-2.1-0.1-2.1C27.2,77.6,27.7,78.8,28.2,80.1z M27.2,70.4c-0.7-0.5-1.3-1-1.3-1.4
 c-0.1-0.8,1.9-2.6,2.1-7.5c0.1-2.3-0.9-4-2.1-5.2c0.1-0.3,0.2-0.5,0.3-0.8c0.8-3,1.2-5.8,3.4-6.9c2.2-1.1,3.8-0.8,4.5-0.7
 c-0.8,1.1-3.1,3.7-2.5,11.9c0.1,3.2,0,4.2-1.4,5.3c-1.4,1.1-1.7,1-2.1,1.8C27.9,67.3,27.6,68.8,27.2,70.4z M28.3,67.7
 c0.2-0.4,1.2-1.8,1.9-2c0.7-0.2,2.4-2.4,2.5-3.7c0.1-1.4,0.8-6.9,1.1-8.2c0.4-1.3,0.5-6.1,8.1-6.4c0,0,0.4,3.9,0.1,5.8
 c-0.2,1.9-2.6,5.4-3.7,6.3c-1.1,0.8-3.1,2-3.1,2.6c0,0.5,3.6,0.2,3,0.9c-0.6,0.7-3.5,1.2-5.1,2c-1.6,0.8-3.2,2.5-3.7,3.5
 c-0.5,1-1,1.9-1.3,1.7C27.8,69.9,28.1,68.1,28.3,67.7z M32.4,75.4c-1.7-0.4-3-1-4-1.7c0.1-0.3,0.2-0.6,0.4-0.9
 c0.3,0.2,0.5,0.3,0.7,0.4c1.5,0.5,2.8,1,3.6,1.2C33.6,74.4,32.6,75.5,32.4,75.4z M36.1,79.4c0.1-1.2,1.7-1.8,2.4-2.1
 c0.1,0,0.2-0.1,0.3-0.1c0,0,0,0,0,0c0.1,0,0.1,0,0.1,0C40.1,79.3,37.8,81.4,36.1,79.4z M50.3,85.4L50.3,85.4
 c-2.7,0.3-5.3-0.7-6-3.5C46.9,81.9,48.4,83.6,50.3,85.4z M55.8,80.6c-2.8-1.6-8,0.3-10.4-1.3c-1.7-1.2-1.8-2.8-1.1-4.1
 c-0.1-0.3-0.2-0.4-0.7-0.6c-0.8-0.3-5.6-1.2-8.3,1.2c-1.5,1.3-2.1,3.7-0.8,6.6c-0.2,0-1.1-0.9-1.5-1.9c-0.6-1.9-0.2-5.3,2.3-6.7
 c2.5-1.4,4.7-1.5,6.5-1c1.9,0.5,4.1,0.5,4.9,0.2c0.7-0.3,1.8-0.4,2.2-0.2h0c0,0,0,0,0,0c0,0,0,0,0,0c1,1.3,2.5,2.3,3.5,3.3
 c-0.3,0.1-1.3-0.1-1.5-0.3c0.8,1.7,2.6,2.7,4.8,3.6V80.6z M60.3,81.9c0,0,0.5-1.4,1.6-3.6c-0.2,0.4-1.4,1-3.1,1.7
 c0.9-1.2,1.4-2.3,1.6-3.6c-0.8,1-3,1.3-5.3,1.1c0,0,1.1-0.7,3.8-1.8c-0.3,0.1-1.3,0.3-4.2-0.4c1.9-0.1,3.6-1.4,4.4-2.2
 c-1.4,0.2-4.8,0.2-7.7-1.1c1.8,0.2,4.7-0.2,6.3-0.9c-1.4,0.2-4.1-0.2-6.8-1.7c2.6,0.8,7.3-0.5,8.9-1c1.6-0.5,2.2,1,2,2.1
 c0,0-0.3,1.7-0.4,3.1c-0.1,1.4,1.2,0.8,2,2.9C64.4,78.5,62.2,80.7,60.3,81.9z M63.1,67.6c0.2-0.2,1.9,0.2,1.5,1.7
 c-0.5,1.5-1.5,3.5-1.5,3.5c-0.3-0.7-0.3-2.2-0.1-3.2C63.2,68.6,63.7,68,63.1,67.6z M66.4,85.3c-0.1,0.2-0.3,0.1-0.6,0
 c-0.6-0.4-1.1-0.9-1.4-1.6c0.8,0.4,1.7,0.6,2.6,0.8c0,0,0,0,0,0C67.1,84.6,66.7,85.2,66.4,85.3z M72.2,76.8
 c-0.8,2-2.6,3.2-4.8,3.8c-0.2,1.1-0.6,1.7-0.8,2.9c-7.6-2.6,5.2-6.5,5.6-7.2V76.8z M70.4,64.5c0,0,0.7,1.7,1.1,2.6
 c0.3,0.8,0.5,0.5,0.8,0.3c0.3-0.2,0.4-0.4,0.9-0.2c0.5,0.2,0.2,0.5-0.1,1c-0.2,0.5,0.2,0.9,0.8,0.9s0.7,0.4,1.1,1.6
 c0.4,1.1,1,1.7,0.1,1.3c-0.1,0.3-0.1,0.5,0,1.4c-0.5,0.1-1.5-0.8-2-1.3c-0.5-0.5-0.9-1-1.7-2.2c-0.1-0.2,0.4-0.2,0.5-0.7
 c0.1-0.5-0.2-1-0.4-0.8c-0.2,0.2-0.7-0.1-0.8-0.4c-0.1-0.3-0.8-2.3-0.9-2.8C69.8,64.8,70,64.2,70.4,64.5z M68.9,65.9
 c0.1,0.5,0.3,1,0.4,1.5c-0.1,0-0.1-0.1-0.2-0.1c-0.2-0.1-0.3-0.3-0.5-0.4c-0.1-0.1-0.2-0.3-0.4-0.3c-0.1,0-0.2,0-0.3,0.1
 c-0.2,0.1-0.5,0.2-0.7,0.3c0,0,0,0,0,0c0.1,0.4,0.4,1.1,0.8,1.6c0.4,0.5,1.7,1.9,1.9,3.6c0.1,1.4-0.1,2,1.4,2.5c0,0-0.6,1.1-2,2.4
 c-1.4,1.3-3.6,0.4-4-1c-0.4-1.4,0.8-5.8,0.4-8.3c-0.4-2.5-5-0.4-6-0.4c-1.1,0-3.9-2.8-6.2-3.4c0.9,1,0.7,2.8,0.2,3.8
 c0.9,0.7,0.8,0.8,0.3,1.1c-0.5,0.2-3.5-0.1-4.5-0.4c-2.9-0.8-3.9-0.8-3.2-0.4c0.7,0.4,2.6,2.4,3,3.7c-1.4-0.2-2.6,0.5-4,0.8
 c-0.4-0.4-0.7-0.8-0.9-1.2c-0.6-1-0.8-1.6-0.4-2.4c0.4-0.8,2.1-2,2.4-2.4c0.3-0.4,2.1-2.7,2.1-2.7s6.5-0.8,8.1-1.3
 c1.5-0.4,5-1.6,6.4-2.3c0.6,0.8,2,2.4,2,2.4l-0.6,1.2L68.9,65.9z M66.8,62l0.9,0.1c0,0,0.2,1.7,0.5,2.8l-2.7-1.3l0.5-1.1
 c0,0-20.5-28.6-31.1-43.5c0.1-0.2,0.2-0.5,0.3-0.8L66.8,62z M79.1,53c0.7,1,1.1,1.6,0.6,1.7c-0.5,0-1.4-1.1-2.4-0.6
 c-1,0.5-5.1,2.6-7.3,2.4c-2.2-0.3-6.3-0.3-8.6-2.9c-2.2-2.6-4.3-5.4-4.4-6.4c-0.1-1,0.2-2.3,0.3-2.6c0.1-0.3,0.5-4.1,0.9-6.4
 c0.4-2.3,0.9-8.8,1.1-10.7c0.2-1.8,1.4-4.9,3.3-6.4c1.9-1.4,3-1.3,3.5-1.2c0.5,0.2,1.2,0.4,1.4,0.3c0.2,0,0.5-0.5,1.2,0
 c0.7,0.5,2.4,1.4,2.7,2.3c0.1,0.3-0.2,0.5-0.5,0.6c-0.4,0-0.8,0.1-1.1,0.3c0.3,0,0.5,0,0.7,0c0.1,0,0.2,0,0.3,0.1c0,0,0,0,0,0
 c-0.1,0.1-0.4,0.2-0.1,0.4c0.2,0.2,0.8,0.8,1.2,0.2c0.3,0.2,0.7,0.4,0.8,1c0.3,0.9,2.4,2.9,2.4,2.9c0.3,0.2,0.8,0.6,0.5,0.9
 c-0.3,0.2-1.1-0.1-1.7,0.1c-0.6,0.2-0.7,0.4-1.3,0.2c-0.6-0.2-2.4-0.8-3.7-1.2c-0.8-0.3-1.6-0.3-2.2-1.1c-0.7-1-0.2-2.5,0.4-3.3
 c-0.6,0.4-1,0.8-1.2,1.3c0,0,0,0,0,0c0,0,0,0,0,0c-0.6,1.4,0.2,3.2,1,4.6c0.2,0.4,0.4,0.8,0.6,1.1c0.8,1.2,2.3,5.9,2.5,7.9
 c0.2,2-0.7,6.3-1.6,7.3c0,0,0,0,0,0.1c-1.6-0.1-3.5-1.3-5.2-0.7C65,46,67,45.9,68.6,47c0.2,0.9,0.5,1.9,0.7,2.7
 c-0.9,0.6-2.9,0.5-4.9,0.7c0,0,2.3,0.9,4.8,1.7c0,0.3,0.1,0.5,0.5,0.6c1,0.4,4.4,0.1,4.9,0C75.2,52.5,78.4,52.1,79.1,53z
 M79.5,46.7c-0.3,0.4-1.7,2.1-2.4,2.7c-0.7,0.6-1.9,1.1-2.4,0.4c-0.4-0.6,0.4-1.9,1.1-2.2c0.7-0.3,1.9-0.9,2.5-1.1
 C79.1,46.2,79.8,46.3,79.5,46.7z"></path></g></g></svg>